<?xml version="1.0" encoding="utf-8"?>
<!-- Generator: Adobe Illustrator 23.0.2, SVG Export Plug-In . SVG Version: 6.00 Build 0)  -->
<svg version="1.1" id="Layer_1" xmlns="http://www.w3.org/2000/svg" xmlns:xlink="http://www.w3.org/1999/xlink" x="0px" y="0px"
	 viewBox="0 0 162 162" style="enable-background:new 0 0 162 162;" xml:space="preserve">
<style type="text/css">
	.st0{fill:#AD0089;}
</style>
<g id="sprawl-favicon" transform="translate(1.003 0.999)">
	<g>
		<path class="st0" d="M58.7,111L58.7,111c2,2.3,3.3,5.1,3.8,8.1c0.1,0.9,0.4,1,1,0.9l6.5-0.8l0.1,0c0.2,0,0.4-0.1,0.5-0.2
			s0.2-0.3,0.2-0.5c0,0,0-0.1,0-0.1l0-0.3c-0.4-3.6-1.8-7.1-4.1-10c-0.2-0.3-0.5-0.6-0.8-0.9l-0.2-0.3c-1.4-1.6-3-3.1-4.7-4.4
			c-0.3-0.3-0.7-0.5-1-0.8c0.1,3.1-0.4,6.3-1.5,9.2C58.6,110.8,58.6,110.9,58.7,111z"/>
		<path class="st0" d="M116.6,102.7l0.1,0c0.2,0,0.4,0,0.5-0.1c0.2-0.1,0.3-0.3,0.3-0.5c0-0.1,0-0.1,0-0.2l0-0.1v-6.5
			c0-0.4-0.1-0.7-0.4-0.8c-0.2-0.1-0.3-0.1-0.5-0.2h-0.3c-3.6,0-7.2,1-10.3,2.9c-0.5,0.3-1.1,0.7-1.6,1c-1.7,1.1-3.3,2.5-4.7,3.9
			c-0.3,0.3-0.6,0.6-0.8,0.9c3.1,0.3,6.2,1.2,9,2.7c0.1-0.1,0.2-0.1,0.3-0.2c2.5-1.6,5.4-2.6,8.4-2.7L116.6,102.7z"/>
		<path class="st0" d="M92.9,13.5L92.2,15c-1.3,2.5-1.8,5.3-1.7,8.1c0.3,3.4,2.4,6.5,6.5,9.8c0.8,0.6,1.6,1.2,2.4,1.8
			c3.5,2.4,5.8,4.4,6.1,6.8l0.9,0.1c1.3,0.1,2.6,0.7,3.5,1.7c0.9,1,1.3,2.3,1.3,3.7c0,0.2,0,0.3-0.1,0.5c-0.1,1.5,0.1,3.1,0.6,4.5
			c0.9-1,1.6-2.1,2.2-3.2c-3-6.5-3.5-11.7-1.5-16.3c-1.6-1.6-3.4-3.1-5.3-4.3c-4.7-3.1-7.3-5.8-5.7-9.4c0.7-1.6,1.8-2.7,3.2-3.3
			c1.6-0.6,3.4-0.4,5.5,0.5c2.3,1,4.3,2.6,5.7,4.8c0.2,0.3,0.6,0.4,0.9,0.3l6.9-2.8c0.2-0.1,0.3-0.2,0.4-0.4c0.1-0.2,0.1-0.4,0-0.6
			l0-0.1c-2.1-3.7-5.7-6.7-10.9-9.1C104.6,4.3,96.9,6.4,92.9,13.5z"/>
		<path class="st0" d="M98.4,46.1c-0.5,3.7,0.1,7.4,1.6,10.7c0.1,0.2,0.2,0.4,0.3,0.7l0.9,1.6c0.9,1.6,1.9,3.1,3,4.5
			c0.2,0.3,0.4,0.5,0.6,0.8c0.6-3.1,1.9-6.1,3.6-8.7l0,0l-0.1-0.3c-1.3-2.6-1.8-5.5-1.6-8.4l0-0.2c0.1-0.4-0.1-0.8-0.6-0.9
			c-0.1,0-0.1,0-0.2,0l-0.1,0l-0.1,0l-6.4-0.8H99c0,0,0,0-0.1,0l-0.2,0.1c0,0,0,0,0,0c0,0,0,0.1-0.1,0.1l-0.1,0.1
			c-0.1,0.1-0.1,0.2-0.1,0.3L98.4,46.1z"/>
		<path class="st0" d="M61.8,10.2L61,13.8c-0.1,1-0.2,2-0.1,3l0,0c0,2.8,0.8,5.6,2.2,8c1.9,2.9,5.1,4.7,10.2,5.7
			c1,0.2,2.1,0.4,3.1,0.5c4,0.5,7,1.2,8.4,3.1l0.5-0.2c0.7-0.3,1.4-0.4,2.1-0.4c2.2,0,4.1,1.4,4.7,3.4c0.7,1.5,1.7,2.9,2.9,4
			c0.3-1.3,0.5-2.6,0.5-3.9c-6.1-4.5-9.1-9-9.3-14.2c-2-0.6-4.1-1.1-6.1-1.3c-5.6-0.6-9.1-1.8-9.3-5.7c-0.2-3.8,2.2-6.2,6.5-6.5
			c2.3-0.2,4.6,0.3,6.6,1.3c0.3,0.1,0.6,0.1,0.8-0.2l5-5.6c0.3-0.3,0.3-0.8,0-1c0,0-0.1-0.1-0.1-0.1C86.1,1.7,81.7,0.8,76.2,1
			C69.1,1.4,63.9,4.7,61.8,10.2z"/>
		<path class="st0" d="M53.1,109.9c0.2,0.1,0.3,0.1,0.5,0.1l0.3,0c0.1,0,0.2-0.1,0.3-0.2c0,0,0,0,0-0.1v0l0.1-0.2
			c1.3-3.4,1.7-7,1.1-10.6l0-0.3c-0.1-0.5-0.2-1-0.4-1.5l0-0.1c0-0.1,0-0.2-0.1-0.3l0-0.1c-0.5-1.9-1.1-3.7-1.8-5.4
			c-0.2-0.4-0.4-0.8-0.6-1.1c-1.4,2.7-3.3,5.2-5.6,7.2c0,0.1,0.1,0.2,0.1,0.4c0.7,2.9,0.5,6-0.5,8.8l-0.1,0.2
			c-0.1,0.2-0.1,0.4-0.1,0.6c0.1,0.2,0.2,0.3,0.3,0.4c0.1,0,0.1,0.1,0.2,0.1l1.1,0.4l0.1,0L53.1,109.9z"/>
		<path class="st0" d="M93.7,45.7c-2.5-1.8-4.4-4.1-5.6-6.9L88,38.6c0-0.1,0-0.1-0.1-0.2c-0.1-0.2-0.3-0.3-0.4-0.4
			c-0.2-0.1-0.4,0-0.6,0.1l-0.1,0l-6,2.4c-0.3,0.1-0.5,0.3-0.6,0.5c0,0,0,0.1,0,0.2c0,0.1,0,0.3,0.1,0.4l0.1,0.3l0,0.1
			c1.3,3.4,3.6,6.3,6.5,8.5c0.4,0.3,0.9,0.6,1.4,1l0.9,0.6c0.4,0.3,0.9,0.6,1.5,0.9l0,0l0.6,0.3c0.7,0.4,1.5,0.8,2.4,1.2
			c0.3,0.1,0.5,0.2,0.8,0.3c-0.8-2.9-1-6-0.7-9C93.7,45.8,93.7,45.7,93.7,45.7z"/>
		<path class="st0" d="M84,147c0.7-2.9,0.6-5.8-0.3-8.5c-1.1-3-3.7-5.5-8-7.6c-1.1-0.5-2.3-1-3.4-1.5c-4.2-1.6-6.9-3.1-7.6-5.5
			l-0.8,0.1h-0.6c-2.5,0.1-4.7-1.9-4.9-4.4c-0.3-1.6-0.9-3.2-1.8-4.6c-0.7,1.2-1.3,2.6-1.6,4c4.5,5.6,6.2,10.6,5.3,15.6
			c1.9,1.2,3.9,2.2,6.1,3c5.3,2,8.4,4,7.7,7.8c-0.7,3.8-3.6,5.5-7.8,4.8c-2.6-0.5-4.9-1.7-6.8-3.5c-0.1-0.1-0.3-0.2-0.5-0.2
			c-0.2,0-0.4,0.1-0.5,0.2l-5.5,4.9c-0.1,0.1-0.2,0.3-0.2,0.5c0,0.2,0.1,0.4,0.2,0.5c2.9,3,7,4.9,12.5,6c4.7,0.9,9,0.3,12.3-1.8
			C80.9,154.8,83.1,151.4,84,147z"/>
		<path class="st0" d="M52.6,141L52.6,141c1.9-2.2,3.2-4.8,3.7-7.6c0.5-3.3-0.7-6.7-3.6-10.6c-0.6-0.9-1.4-1.8-2.2-2.7
			c-2.9-3.3-4.7-6-4.2-8.4l-0.7-0.3c-1.2-0.4-2.2-1.2-2.8-2.4c-0.6-1.1-0.7-2.4-0.3-3.7c0-0.1,0.1-0.3,0.2-0.4
			c0.5-1.5,0.7-3.2,0.6-4.8C42,101,41,101.9,40,103c1.4,7,0.6,12.2-2.5,16.2c1.1,2,2.5,3.8,4,5.5c3.8,4.2,5.6,7.4,3.2,10.5
			c-2.4,3-5.8,3.2-9.1,0.5c-2-1.5-3.5-3.6-4.3-6.1c-0.1-0.3-0.4-0.5-0.7-0.5c0,0-0.1,0-0.1,0l-7.3,1.3c-0.2,0-0.3,0.1-0.5,0.3
			c-0.1,0.2-0.1,0.4-0.1,0.6c1.2,4.1,3.8,7.7,8.3,11.3c3.7,3,7.7,4.4,11.6,4.1C46.3,146.5,49.8,144.5,52.6,141z"/>
		<path class="st0" d="M147.6,116.5c0.2,0.1,0.4,0,0.6-0.1c3.7-2.6,6.2-6.4,8-12c1.5-4.7,1.4-9.2-0.5-12.8c-1.5-3-4.2-5.3-7.6-6.6
			l0,0l-1.2-0.4c-2.7-1-5.7-1.3-8.5-0.7c-3.1,0.8-5.7,2.9-8.2,6.7c-0.7,1.1-1.4,2.2-2,3.4c-2.1,4-3.9,6.6-6.4,6.9v0.8
			c0.2,2.6-1.8,4.8-4.5,5c-0.2,0-0.4,0-0.5,0c-1.6,0.1-3.2,0.5-4.7,1.2c1.2,0.8,2.4,1.5,3.8,2c4.3-2.7,8.1-4,11.7-4
			c1.4,0,2.9,0.2,4.2,0.6c1.5-1.8,2.8-3.7,3.8-5.8c2.6-5,4.9-7.9,8.6-6.7c3.7,1.2,5.1,4.3,3.8,8.4c-0.8,2.7-2.4,5-4.7,6.6
			c0.9,1.6,2.8,5,3.9,7.1C147.2,116.3,147.4,116.4,147.6,116.5z"/>
		<path class="st0" d="M115.3,143.4l-0.2-3.6c-0.1-0.4-0.1-0.8-0.2-1.3l0,0l-0.2-0.9c-0.7-2.7-2.1-5.1-4-7.1l-0.2-0.2
			c-2.3-2.1-5.4-3.1-9.6-3.1h-1.1l-3.5,0.3c-4.4,0.5-7.6,0.5-9.3-1.4l-0.7,0.5c-0.9,0.6-1.9,1-2.9,1c-1.7,0-3.2-0.9-4-2.2
			c-1-1.3-2.2-2.3-3.6-3.2c0,1.4,0.1,2.8,0.5,4.2c6.5,2.9,10.3,6.5,11.8,11.3c2.3,0.2,4.6,0.1,6.9-0.2c5.6-0.7,9.3-0.4,10.4,3.4
			c1.1,3.7-0.7,6.6-4.8,7.8c-2.5,0.8-5.3,0.8-7.9,0c-0.1,0-0.2,0-0.2,0c-0.3,0-0.6,0.2-0.7,0.5l-2.5,6.9c-0.1,0.2,0,0.4,0,0.6
			s0.2,0.3,0.4,0.4c4,1.3,8.6,1.1,13.9-0.5C110.6,154.3,114.9,149.6,115.3,143.4z"/>
		<path class="st0" d="M10.6,91.2l2.4,0.6c0.5,0.1,1.1,0.2,1.8,0.2l0.1,0c2.8,0.4,5.7-0.1,8.3-1.3c3-1.5,5.1-4.4,6.7-9
			c0.4-1,0.7-2.2,1-3.3c1.1-4.3,2.3-7.3,4.6-8.2l-0.2-0.8c-0.7-2.5,0.7-5.2,3.3-5.9c0.1,0,0.3-0.1,0.4-0.1c1.5-0.4,2.9-1.2,4.2-2.2
			c-1.3-0.5-2.7-0.9-4.1-1.1c-4.7,4.8-9.1,7-13.8,7c-0.3,0-0.6,0-0.9-0.1c-1,2.1-1.8,4.3-2.3,6.5c-1.3,5.5-2.9,8.9-6.8,8.6
			c-3.8-0.3-5.9-3-5.6-7.2c0.1-2.5,1-5,2.5-7c0.2-0.3,0.2-0.7-0.1-0.9l-5.2-5.3c-0.1-0.1-0.3-0.2-0.5-0.2c-0.2,0-0.4,0.1-0.5,0.2
			C3,64.8,1.5,69.2,1.1,74.9C0.5,82.9,4,89,10.6,91.2z"/>
		<path class="st0" d="M12.8,38.5c-5.2,8.3-3.5,16.7,4.2,21.5l0,0c2.4,1.6,5.2,2.6,8,2.7l0.1,0c3.2,0,6.3-1.5,9.8-4.7
			c0.8-0.8,1.7-1.6,2.6-2.6l0.1-0.1c2.9-3.2,5.4-5.3,7.8-5.1l0.2-0.7c0.4-2.2,2.4-3.9,4.7-3.8c0.4,0,0.9,0.1,1.3,0.2
			c0.8,0.2,1.7,0.3,2.6,0.3c0.8,0,1.6-0.1,2.3-0.2c-0.9-1.1-2-2.1-3.2-2.9c-2.7,0.9-5.5,1.4-8.3,1.5c-2.9,0-5.7-0.7-8.1-2.2
			c-1.8,1.4-3.5,3-5,4.6c-3.6,4.1-6.7,6.4-10,4.3c-3.3-2-3.9-5.3-1.7-9c1.3-2.2,3.2-3.9,5.6-5c0.3-0.1,0.5-0.5,0.4-0.8l-1.8-7.2
			c0-0.2-0.2-0.4-0.3-0.5c-0.1-0.1-0.2-0.1-0.4-0.1c-0.1,0-0.1,0-0.2,0C19.3,30.4,15.8,33.6,12.8,38.5z"/>
		<path class="st0" d="M31.6,27.5l0.6,2.2c0.4,1.1,0.9,2.2,1.5,3.3l0,0c1.3,2.5,3.3,4.7,5.8,6.2c1.6,0.9,3.5,1.4,5.4,1.3
			c1.9,0,3.8-0.3,5.7-0.9c1.1-0.3,2.2-0.7,3.4-1.1c4.1-1.5,7.1-2.2,9.2-1l0.4-0.4c0.9-1.1,2.2-1.7,3.7-1.8c1.3,0,2.5,0.5,3.4,1.3
			c1.4,1.1,3,1.9,4.7,2.3c-0.3-1.4-0.8-2.8-1.4-4c-7.4-1.2-12-3.8-14.7-8.3C57.1,27,55,27.6,53,28.4c-5.3,2-9,2.6-10.9-0.8
			c-0.9-1.5-1.2-3.1-0.8-4.6c0.4-1.6,1.7-3.1,3.6-4.2c2.1-1.3,4.5-1.9,6.9-1.9c0.3,0,0.6-0.2,0.7-0.6l1.7-7.3c0-0.2,0-0.4-0.1-0.6
			s-0.3-0.3-0.5-0.3c0,0-0.1,0-0.1,0c-0.5-0.1-1.1-0.1-1.6-0.1c-3.7,0-7.7,1.2-12,3.8C33.6,15.7,30.5,21.3,31.6,27.5z"/>
		<path class="st0" d="M143,31.5c-6-7.7-14.5-9.1-21.6-3.6c-2.4,1.7-4.3,4-5.4,6.6l0,0.1c-1.2,3-0.8,6.5,1,11c0.5,1.1,1,2.2,1.6,3.2
			c2.1,3.9,3.2,6.9,2.1,9.1l0.3,0.2c1.1,0.6,1.9,1.6,2.2,2.9c0.3,1.2,0.2,2.5-0.4,3.6c-0.1,0.2-0.2,0.3-0.3,0.5
			c-0.8,1.4-1.4,2.9-1.6,4.6c1.3-0.5,2.5-1.1,3.8-1.8c0.1-7.5,2.1-12.6,6.3-15.9c-0.6-1.9-1.4-3.8-2.4-5.6
			c-2.6-4.8-3.8-8.5-0.6-10.9c1.4-1.1,2.9-1.6,4.4-1.4c1.7,0.2,3.2,1.2,4.6,3c1.4,1.8,2.4,3.9,2.7,6.2c0,0.3,0.3,0.6,0.7,0.6
			l7.4,0.5c0.4,0,0.8-0.3,0.8-0.7c0,0,0-0.1,0-0.1C148.1,39.8,146.3,35.8,143,31.5z"/>
		<path class="st0" d="M158.4,65.3c-1.9-9.6-8.9-14.6-17.8-12.8c-2.7,0.4-5.3,1.5-7.5,3.2c-2.7,2.3-4.1,5.9-4.3,11.2l0,3
			c0.1,4.5-0.3,7.7-2.3,9.2l0.5,0.9c1.3,2.2,0.6,5.2-1.7,6.5c-0.1,0.1-0.2,0.1-0.4,0.2c-1.3,0.8-2.5,1.8-3.4,3.1
			c1.4,0.2,2.9,0.2,4.3,0c3.6-6,7.5-9.3,12.4-10.2c0.4-2.4,0.6-4.8,0.4-7.2c-0.2-5.7,0.5-9.3,4.3-10.1c1.8-0.4,3.3-0.1,4.6,0.7
			c1.4,0.9,2.3,2.5,2.8,4.8c0.6,2.6,0.3,5.3-0.7,7.8c-0.1,0.2,0,0.3,0.1,0.4l6.9,4.5c0.1,0.1,0.2,0.1,0.3,0c0.1,0,0.1,0,0.2-0.1
			C159.1,76.3,159.5,71.4,158.4,65.3z"/>
		<path class="st0" d="M113.2,58.1C113.1,58,113,58,113,58l-0.2,0c-0.1,0-0.1,0-0.1,0l-0.2,0c0,0-0.1,0-0.1,0.1l-0.3,0.2
			c0,0-0.1,0.1-0.1,0.1c-2.1,3.1-3.3,6.7-3.4,10.4c-0.1,2.7,0.1,5.4,0.7,8.1c0.1,0.4,0.2,0.7,0.3,1.1c2-2.4,4.4-4.3,7.1-5.8
			c0-0.1,0-0.1,0-0.2l0-0.2c0-3.1,0.8-6.1,2.3-8.7l0.1-0.2c0.1-0.1,0.2-0.3,0.2-0.5c0-0.2-0.1-0.4-0.2-0.5c-0.1-0.1-0.1-0.1-0.2-0.1
			l-2.6-1.6l-0.1,0L113.2,58.1z"/>
		<path class="st0" d="M27.6,121.2L27.6,121.2c2.7-1,5.1-2.8,6.8-5c1.9-2.6,2.4-6.1,1.7-11c-0.2-1.2-0.4-2.4-0.7-3.5
			c-1.1-4.2-1.4-7.4,0.2-9.4l-0.5-0.5c-0.9-0.9-1.4-2.1-1.3-3.4c0-1.3,0.5-2.5,1.4-3.4c0.1-0.1,0.2-0.2,0.4-0.3
			c1.2-1.1,2.1-2.5,2.8-4.1c-1.4,0.1-2.8,0.5-4.2,1c-2,6.7-5.3,11.1-9.9,13.2c0.1,2.3,0.4,4.5,1,6.7c1.4,5.5,1.5,9.2-2.1,10.8
			c-1.7,0.7-3.2,0.8-4.6,0.3c-1.6-0.6-2.8-2-3.7-4.1c-1-2.4-1.4-5.1-0.9-7.6c0.1-0.4-0.2-0.7-0.5-0.8l-7.2-1.9c-0.1,0-0.1,0-0.2,0
			c-0.3,0-0.6,0.2-0.7,0.6c-0.9,4.1-0.2,8.6,2.1,13.9C11.4,121.4,19.3,124.8,27.6,121.2z"/>
		<path class="st0" d="M75.9,43.3c-2.9-0.4-5.6-1.6-7.9-3.5l-0.1-0.1c-0.3-0.3-0.7-0.4-1-0.1c-0.1,0-0.1,0.1-0.1,0.2l-0.1,0.1
			l-4.3,4.9c-0.1,0.1-0.2,0.3-0.3,0.4c0,0.1-0.1,0.2-0.1,0.3c0,0,0,0.1,0.1,0.2c0,0,0,0,0,0l0.1,0l0.4,0.5c2.7,2.5,6.1,4.1,9.7,4.8
			l0.2,0c1.1,0.2,2.2,0.3,3.3,0.4l1.1,0c0.4,0,0.7,0,1.1,0c0.8,0,1.5,0,2.3,0c0.2,0,0.4,0,0.6,0c-2.1-2.2-3.8-4.9-4.9-7.8
			C76,43.4,75.9,43.4,75.9,43.3z"/>
		<path class="st0" d="M123.2,143.6c0.1,0.1,0.4,0.2,0.5,0.2c4.3-0.6,8.3-2.9,12.5-6.9c5.3-5.2,6.9-11.4,4.4-17l-1.7-2.9
			c-0.5-0.6-1.1-1.2-1.6-1.8l-1.4-1.3l0.1,0c-1.7-1.5-3.7-2.6-5.9-3.3c-0.8-0.2-1.7-0.3-2.5-0.3c-2.9,0.1-5.7,1-8.2,2.5
			c-1.1,0.6-2.1,1.3-3.2,2c-3.6,2.5-6.4,3.9-8.8,3.2l-0.3,0.6c-0.7,1.6-2.4,2.7-4.2,2.8c-0.9,0-1.7-0.2-2.5-0.6
			c-1.5-0.7-3.1-1.1-4.8-1.2c0.6,1.3,1.4,2.4,2.4,3.5c1.1-0.1,2-0.1,2.9-0.1c5.6,0,9.9,1.5,13,4.6c2.1-0.9,4-2,5.8-3.3
			c2.9-2.1,5.4-3.4,7.5-3.4c1.2,0,2.3,0.4,3.3,1.5c2.7,2.7,2.5,6.2-0.6,9.2c-1.8,1.8-4.1,3.1-6.6,3.6c-0.3,0.1-0.6,0.4-0.5,0.7
			l0.3,7.4C123,143.2,123.1,143.4,123.2,143.6z"/>
		<path class="st0" d="M95.1,115.5c2.4,0,4.8,0.5,7,1.6l0.2,0.1c0.3,0.2,0.8,0.2,1-0.1c0-0.1,0.1-0.1,0.1-0.2l0.1-0.1l3.1-5.9
			c0.2-0.3,0.2-0.6,0-0.9c0,0-0.1-0.1-0.1-0.1h-0.2l-0.2-0.1c-3.3-1.7-6.9-2.5-10.6-2.3l-1.9,0.2c-1.3,0.2-2.6,0.4-3.8,0.7
			c-0.7,0.2-1.4,0.4-2.1,0.6c-0.4,0.1-0.8,0.3-1.2,0.4c2.6,1.7,4.8,3.8,6.5,6.4l0.4-0.1C93.8,115.5,94.4,115.5,95.1,115.5
			C95,115.5,95,115.5,95.1,115.5z"/>
		<path class="st0" d="M59.5,49.4c-2.8,1-5.9,1.2-8.8,0.6c-0.2,0-0.4-0.1-0.6-0.1c-0.2,0-0.4,0-0.7,0.8l-1.5,6.2
			c-0.1,0.3-0.1,0.5,0,0.8c0.1,0.2,0.3,0.3,0.5,0.4l0.3,0C52.3,59,56,59,59.5,57.9c0.6-0.2,1.1-0.3,1.7-0.6c0.7-0.3,1.4-0.6,2.3-1
			c1.1-0.5,2.2-1.1,3.3-1.7c0.3-0.2,0.6-0.4,0.9-0.6C64.7,53.1,62,51.5,59.5,49.4C59.6,49.4,59.5,49.4,59.5,49.4z"/>
		<path class="st0" d="M75.5,117.6c2.8,1.1,5.2,3,7,5.3l0.1,0.2c0.1,0.2,0.2,0.3,0.4,0.4c0.2,0.1,0.4,0,0.6,0c0.1,0,0.1-0.1,0.1-0.1
			l5.5-3.8c0.3-0.2,0.5-0.5,0.4-0.8c0-0.1-0.1-0.3-0.2-0.4l-0.1-0.3c-2.1-2.9-4.9-5.2-8.1-6.7c-1-0.5-2.1-0.9-3.1-1.2
			c-1.5-0.5-3-0.9-4.6-1.2c-0.4-0.1-0.8-0.1-1.3-0.2c1.5,2.7,2.5,5.7,2.9,8.8C75.2,117.5,75.3,117.5,75.5,117.6z"/>
		<path class="st0" d="M122.7,83.2l0.5-0.3c0,0,0.1-0.1,0.1-0.2c0.1-0.2,0.1-0.4,0-0.6c0-0.1-0.1-0.1-0.1-0.2l-0.1-0.1l-3.1-5.7
			c-0.1-0.1-0.2-0.3-0.3-0.4l-0.1-0.1c0,0-0.1,0-0.2-0.1c0,0,0,0-0.1,0c0,0,0,0,0,0l-0.1,0c-0.1,0-0.3,0.1-0.4,0.1l-0.2,0.1h-0.2
			c-3.1,1.7-5.8,4.2-7.6,7.2c-0.5,0.8-1,1.6-1.4,2.5c-0.8,1.6-1.4,3.2-2,4.9c-0.1,0.4-0.3,0.9-0.4,1.3c2.9-1.2,6-1.8,9.1-1.8
			c0.1-0.2,0.2-0.4,0.3-0.6C118.2,86.8,120.3,84.7,122.7,83.2z"/>
		<path class="st0" d="M39.7,67.3c-0.4,0.1-0.7,0.4-0.6,0.8c0,0.1,0,0.1,0,0.2l0,0.1l1.5,6.2c0,0.2,0.1,0.3,0.2,0.5l0.1,0.2
			c0,0,0,0,0,0c0,0,0,0,0,0l0.1,0l0.1,0c0.1,0,0.3,0,0.4,0l0.2,0c3.6-0.8,6.9-2.6,9.5-5.2c1.2-1.2,2.3-2.4,3.3-3.8
			c0.7-0.9,1.2-1.7,1.7-2.5c0.2-0.3,0.4-0.7,0.6-1c-3.1,0.4-6.3,0.3-9.4-0.5l0,0c-0.1,0.1-0.2,0.2-0.3,0.3c-2.1,2.2-4.6,3.8-7.5,4.6
			L39.7,67.3z"/>
		<path class="st0" d="M38.2,87.8c-0.2,0.1-0.3,0.3-0.3,0.5c0,0.2,0,0.4,0.1,0.6c0,0.1,0.1,0.1,0.1,0.2l0.1,0.1l4.3,4.9
			c0.1,0.1,0.1,0.1,0.2,0.2h0.1l0.2,0.1c0.1,0,0.1,0,0.2,0.1c0.1,0,0.1,0,0.2,0l0.2,0c0.1,0,0.1-0.1,0.2-0.1l0.3-0.2
			c2.7-2.4,4.7-5.5,5.8-9l0,0c0.4-1.2,0.7-2.4,0.9-3.7c0.3-1.4,0.4-2.8,0.5-4.1c0-0.4,0-0.9,0-1.4c-2.5,1.8-5.4,3.1-8.4,3.9
			c0,0.2-0.1,0.4-0.2,0.5c-0.7,2.8-2.3,5.5-4.5,7.6L38.2,87.8z"/>
	</g>
</g>
</svg>
