<svg id="laberinto" xmlns="http://www.w3.org/2000/svg" width="2388.294" height="2400.507" viewBox="0 0 2388.294 2400.507">
  <g id="laberinto-2" data-name="laberinto" transform="translate(980.829 -673.795) rotate(47)" opacity="0.1">
    <path id="Trazado_25930" data-name="Trazado 25930" d="M1118.546,439.408,986.908,389.827c-3.56,9.453-7.234,18.889-11.108,28.294A986.251,986.251,0,0,1,791.869,708.3l103.8,94.852" transform="translate(1306.458 736.727)" fill="rgba(0,0,0,0)" stroke="#160d23" stroke-miterlimit="10" stroke-width="1"/>
    <path id="Trazado_25931" data-name="Trazado 25931" d="M1177.809,524.131,1074,429.279A988.1,988.1,0,0,1,751.977,662.622" transform="translate(1024.322 1015.751)" fill="rgba(0,0,0,0)" stroke="#160d23" stroke-miterlimit="10" stroke-width="1"/>
    <path id="Trazado_25932" data-name="Trazado 25932" d="M937.363,632.11c-9.452-3.568-18.889-7.233-28.294-11.108A986.2,986.2,0,0,1,618.9,437.071" transform="translate(83.109 1070.86)" fill="rgba(0,0,0,0)" stroke="#160d23" stroke-miterlimit="10" stroke-width="1"/>
    <path id="Trazado_25933" data-name="Trazado 25933" d="M607.145,449.93A1125.668,1125.668,0,0,0,970.9,672.8" transform="translate(0 1161.805)" fill="rgba(0,0,0,0)" stroke="#160d23" stroke-miterlimit="10" stroke-width="1"/>
    <path id="Trazado_25934" data-name="Trazado 25934" d="M652.206,538.023a1124.768,1124.768,0,0,0,448.621,71.514l-6.329-140.55" transform="translate(318.693 1296.585)" fill="rgba(0,0,0,0)" stroke="#160d23" stroke-miterlimit="10" stroke-width="1"/>
    <path id="Trazado_25935" data-name="Trazado 25935" d="M658.347,461.232" transform="translate(362.125 1241.738)" fill="rgba(0,0,0,0)" stroke="#160d23" stroke-miterlimit="10" stroke-width="1"/>
    <path id="Trazado_25936" data-name="Trazado 25936" d="M992.889,341.179,853.63,347.451a843.5,843.5,0,0,1-53.754,337.325l130.4,49.113" transform="translate(1363.086 392.665)" fill="rgba(0,0,0,0)" stroke="#160d23" stroke-miterlimit="10" stroke-width="1"/>
    <path id="Trazado_25937" data-name="Trazado 25937" d="M658.347,461.232" transform="translate(362.125 1241.738)" fill="rgba(0,0,0,0)" stroke="#160d23" stroke-miterlimit="10" stroke-width="1"/>
    <path id="Trazado_25938" data-name="Trazado 25938" d="M1001.764,498.824a843.378,843.378,0,0,1-337.332-53.746" transform="translate(405.154 1127.489)" fill="rgba(0,0,0,0)" stroke="#160d23" stroke-miterlimit="10" stroke-width="1"/>
    <path id="Trazado_25939" data-name="Trazado 25939" d="M817.37,455a842.706,842.706,0,0,1-126.867-3.73" transform="translate(589.548 1171.31)" fill="rgba(0,0,0,0)" stroke="#160d23" stroke-miterlimit="10" stroke-width="1"/>
    <path id="Trazado_25940" data-name="Trazado 25940" d="M707,468.987" transform="translate(706.194 1296.585)" fill="rgba(0,0,0,0)" stroke="#160d23" stroke-miterlimit="10" stroke-width="1"/>
    <path id="Trazado_25941" data-name="Trazado 25941" d="M706.219,451.736" transform="translate(700.699 1174.578)" fill="rgba(0,0,0,0)" stroke="#160d23" stroke-miterlimit="10" stroke-width="1"/>
    <path id="Trazado_25942" data-name="Trazado 25942" d="M779.116,657.255l102.948,94.077A986.247,986.247,0,0,0,1066,461.15c3.874-9.4,7.548-18.841,11.108-28.294L946.7,383.743q-10.667,28.249-23.459,56.128" transform="translate(1216.262 693.699)" fill="rgba(0,0,0,0)" stroke="#160d23" stroke-miterlimit="10" stroke-width="1"/>
    <path id="Trazado_25943" data-name="Trazado 25943" d="M751.977,745.045A988.1,988.1,0,0,0,1074,511.7L971.056,417.625" transform="translate(1024.322 933.328)" fill="rgba(0,0,0,0)" stroke="#160d23" stroke-miterlimit="10" stroke-width="1"/>
    <path id="Trazado_25944" data-name="Trazado 25944" d="M828.872,342.722a706.6,706.6,0,0,1-44.915,282.747" transform="translate(1250.499 403.578)" fill="rgba(0,0,0,0)" stroke="#160d23" stroke-miterlimit="10" stroke-width="1"/>
    <path id="Trazado_25945" data-name="Trazado 25945" d="M799.876,679.281A843.5,843.5,0,0,0,853.63,341.956" transform="translate(1363.086 398.161)" fill="rgba(0,0,0,0)" stroke="#160d23" stroke-miterlimit="10" stroke-width="1"/>
    <path id="Trazado_25946" data-name="Trazado 25946" d="M806.535,341.956" transform="translate(1410.182 398.161)" fill="rgba(0,0,0,0)" stroke="#160d23" stroke-miterlimit="10" stroke-width="1"/>
    <path id="Trazado_25947" data-name="Trazado 25947" d="M906.943,303.317,781.755,360.01a714.717,714.717,0,0,1,62.69,261.4" transform="translate(1234.926 124.887)" fill="rgba(0,0,0,0)" stroke="#160d23" stroke-miterlimit="10" stroke-width="1"/>
    <path id="Trazado_25948" data-name="Trazado 25948" d="M737.835,426.957" transform="translate(924.303 999.329)" fill="rgba(0,0,0,0)" stroke="#160d23" stroke-miterlimit="10" stroke-width="1"/>
    <line id="Línea_1075" data-name="Línea 1075" x2="21.25" y2="416.372" transform="translate(1400.728 1488.975)" fill="rgba(0,0,0,0)" stroke="#160d23" stroke-miterlimit="10" stroke-width="1"/>
    <path id="Trazado_25949" data-name="Trazado 25949" d="M816.986,377.748a718.28,718.28,0,0,1-37.7,83.235" transform="translate(1217.471 651.299)" fill="rgba(0,0,0,0)" stroke="#160d23" stroke-miterlimit="10" stroke-width="1"/>
    <path id="Trazado_25950" data-name="Trazado 25950" d="M796.97,439.871q12.848-27.85,23.459-56.128" transform="translate(1342.534 693.699)" fill="rgba(0,0,0,0)" stroke="#160d23" stroke-miterlimit="10" stroke-width="1"/>
    <line id="Línea_1076" data-name="Línea 1076" x2="101.441" y2="92.696" transform="translate(1893.939 1258.261)" fill="rgba(0,0,0,0)" stroke="#160d23" stroke-miterlimit="10" stroke-width="1"/>
    <line id="Línea_1077" data-name="Línea 1077" x1="101.441" y1="92.696" transform="translate(1893.939 1258.261)" fill="rgba(0,0,0,0)" stroke="#160d23" stroke-miterlimit="10" stroke-width="1"/>
    <path id="Trazado_25951" data-name="Trazado 25951" d="M749.732,331.68A573.859,573.859,0,0,1,886.213,519.729l122.025-55.256" transform="translate(1008.444 20.425)" fill="rgba(0,0,0,0)" stroke="#160d23" stroke-miterlimit="10" stroke-width="1"/>
    <path id="Trazado_25953" data-name="Trazado 25953" d="M772.935,343.47" transform="translate(1172.547 408.868)" fill="rgba(0,0,0,0)" stroke="#160d23" stroke-miterlimit="10" stroke-width="1"/>
    <path id="Trazado_25954" data-name="Trazado 25954" d="M783.957,625.469a706.6,706.6,0,0,0,44.915-282.747" transform="translate(1250.499 403.578)" fill="rgba(0,0,0,0)" stroke="#160d23" stroke-miterlimit="10" stroke-width="1"/>
    <path id="Trazado_25955" data-name="Trazado 25955" d="M804.853,343.47a574.538,574.538,0,0,1-36.431,229.476" transform="translate(1140.629 408.868)" fill="rgba(0,0,0,0)" stroke="#160d23" stroke-miterlimit="10" stroke-width="1"/>
    <line id="Línea_1078" data-name="Línea 1078" x1="99.014" y1="90.478" transform="translate(1794.925 1167.783)" fill="rgba(0,0,0,0)" stroke="#160d23" stroke-miterlimit="10" stroke-width="1"/>
    <path id="Trazado_25956" data-name="Trazado 25956" d="M779.287,460.983a718.28,718.28,0,0,0,37.7-83.235" transform="translate(1217.471 651.299)" fill="rgba(0,0,0,0)" stroke="#160d23" stroke-miterlimit="10" stroke-width="1"/>
    <path id="Trazado_25957" data-name="Trazado 25957" d="M752.24,323.7" transform="translate(1026.182 269.081)" fill="rgba(0,0,0,0)" stroke="#160d23" stroke-miterlimit="10" stroke-width="1"/>
    <path id="Trazado_25958" data-name="Trazado 25958" d="M806.21,305.573l-76.648,83.873c2.317,2.123,4.6,4.295,6.862,6.49.638.613,1.292,1.195,1.921,1.808,2.268,2.236,4.472,4.569,6.684,6.878,1.848,1.921,3.729,3.819,5.53,5.772,1.2,1.324,2.365,2.7,3.551,4.044,2.664,3,5.312,6.014,7.855,9.09.718.872,1.4,1.776,2.106,2.648,2.882,3.56,5.708,7.144,8.42,10.8.177.242.371.46.548.7.614.831,1.163,1.687,1.777,2.527,2.445,3.382,4.859,6.781,7.176,10.236,1.25,1.865,2.429,3.745,3.632,5.626,1.655,2.575,3.309,5.15,4.884,7.766,1.76,2.906,3.423,5.836,5.086,8.775.864,1.542,1.744,3.076,2.583,4.626,2.179,4,4.238,8.024,6.24,12.077.226.468.468.928.694,1.4,1.324,2.721,2.64,5.433,3.883,8.17" transform="translate(865.792 140.843)" fill="rgba(0,0,0,0)" stroke="#160d23" stroke-miterlimit="10" stroke-width="1"/>
    <path id="Trazado_25961" data-name="Trazado 25961" d="M791.707,489.005A450.812,450.812,0,0,0,752.24,323.7" transform="translate(1026.182 269.081)" fill="rgba(0,0,0,0)" stroke="#160d23" stroke-miterlimit="10" stroke-width="1"/>
    <path id="Trazado_25962" data-name="Trazado 25962" d="M730.65,316.991c2.293,2.252,4.472,4.577,6.685,6.878C735.122,321.56,732.918,319.227,730.65,316.991Z" transform="translate(873.487 221.596)" fill="rgba(0,0,0,0)" stroke="#160d23" stroke-miterlimit="10" stroke-width="1"/>
    <path id="Trazado_25964" data-name="Trazado 25964" d="M733.576,320.185c.727.872,1.4,1.768,2.107,2.648C734.981,321.961,734.294,321.057,733.576,320.185Z" transform="translate(894.181 244.186)" fill="rgba(0,0,0,0)" stroke="#160d23" stroke-miterlimit="10" stroke-width="1"/>
    <path id="Trazado_25965" data-name="Trazado 25965" d="M735.429,322.553c-.177-.242-.372-.46-.548-.7.8,1.066,1.542,2.155,2.325,3.229C736.591,324.241,736.042,323.385,735.429,322.553Z" transform="translate(903.403 255.969)" fill="rgba(0,0,0,0)" stroke="#160d23" stroke-miterlimit="10" stroke-width="1"/>
    <path id="Trazado_25968" data-name="Trazado 25968" d="M736.057,323.519c1.243,1.856,2.429,3.746,3.633,5.626C738.486,327.265,737.308,325.384,736.057,323.519Z" transform="translate(911.728 267.765)" fill="rgba(0,0,0,0)" stroke="#160d23" stroke-miterlimit="10" stroke-width="1"/>
    <path id="Trazado_25971" data-name="Trazado 25971" d="M738.062,326.838q3.245,5.982,6.24,12.076C742.3,334.862,740.241,330.834,738.062,326.838Z" transform="translate(925.908 291.239)" fill="rgba(0,0,0,0)" stroke="#160d23" stroke-miterlimit="10" stroke-width="1"/>
    <path id="Trazado_25972" data-name="Trazado 25972" d="M737.112,325.178c1.743,2.9,3.431,5.828,5.086,8.775C740.535,331.014,738.872,328.084,737.112,325.178Z" transform="translate(919.189 279.499)" fill="rgba(0,0,0,0)" stroke="#160d23" stroke-miterlimit="10" stroke-width="1"/>
    <path id="Trazado_25973" data-name="Trazado 25973" d="M732.163,318.558c1.211,1.332,2.358,2.7,3.552,4.044C734.528,321.262,733.366,319.881,732.163,318.558Z" transform="translate(884.188 232.679)" fill="rgba(0,0,0,0)" stroke="#160d23" stroke-miterlimit="10" stroke-width="1"/>
    <path id="Trazado_25974" data-name="Trazado 25974" d="M696.65,306.572c4.915-.582,9.848-1.025,14.789-1.388Q704.028,305.7,696.65,306.572Z" transform="translate(633.023 138.084)" fill="rgba(0,0,0,0)" stroke="#160d23" stroke-miterlimit="10" stroke-width="1"/>
    <path id="Trazado_25976" data-name="Trazado 25976" d="M742.8,336.677c-1.243-2.737-2.558-5.449-3.882-8.17,1.316,2.72,2.511,5.481,3.753,8.226Z" transform="translate(931.984 303.043)" fill="rgba(0,0,0,0)" stroke="#160d23" stroke-miterlimit="10" stroke-width="1"/>
    <path id="Trazado_25977" data-name="Trazado 25977" d="M696.625,305.358" transform="translate(632.846 139.322)" fill="rgba(0,0,0,0)" stroke="#160d23" stroke-miterlimit="10" stroke-width="1"/>
    <path id="Trazado_25978" data-name="Trazado 25978" d="M736.466,322.453c-2.26-2.2-4.545-4.367-6.861-6.49l-.048.065C731.881,318.151,734.213,320.274,736.466,322.453Z" transform="translate(865.75 214.326)" fill="rgba(0,0,0,0)" stroke="#160d23" stroke-miterlimit="10" stroke-width="1"/>
    <line id="Línea_1079" data-name="Línea 1079" y1="0.057" x2="0.051" transform="translate(1595.303 530.292)" fill="rgba(0,0,0,0)" stroke="#160d23" stroke-miterlimit="10" stroke-width="1"/>
    <path id="Trazado_25983" data-name="Trazado 25983" d="M730.412,316.767c.638.614,1.292,1.195,1.921,1.808C731.7,317.962,731.05,317.38,730.412,316.767Z" transform="translate(871.803 220.012)" fill="rgba(0,0,0,0)" stroke="#160d23" stroke-miterlimit="10" stroke-width="1"/>
    <path id="Trazado_25984" data-name="Trazado 25984" d="M731.478,317.843c1.848,1.921,3.722,3.8,5.53,5.772C735.207,321.662,733.326,319.764,731.478,317.843Z" transform="translate(879.343 227.622)" fill="rgba(0,0,0,0)" stroke="#160d23" stroke-miterlimit="10" stroke-width="1"/>
    <path id="Trazado_25985" data-name="Trazado 25985" d="M736.507,324.216c1.663,2.575,3.3,5.158,4.884,7.766C739.816,329.366,738.161,326.791,736.507,324.216Z" transform="translate(914.911 272.695)" fill="rgba(0,0,0,0)" stroke="#160d23" stroke-miterlimit="10" stroke-width="1"/>
    <path id="Trazado_25986" data-name="Trazado 25986" d="M738.835,328.334c.226.468.468.928.694,1.4C739.3,329.262,739.061,328.8,738.835,328.334Z" transform="translate(931.375 301.819)" fill="rgba(0,0,0,0)" stroke="#160d23" stroke-miterlimit="10" stroke-width="1"/>
    <path id="Trazado_25987" data-name="Trazado 25987" d="M732.6,319.059c2.647,2.995,5.3,5.99,7.854,9.09C737.915,325.073,735.267,322.062,732.6,319.059Z" transform="translate(887.3 236.222)" fill="rgba(0,0,0,0)" stroke="#160d23" stroke-miterlimit="10" stroke-width="1"/>
    <path id="Trazado_25988" data-name="Trazado 25988" d="M737.742,326.265c.871,1.542,1.744,3.076,2.583,4.626C739.486,329.341,738.605,327.807,737.742,326.265Z" transform="translate(923.645 287.187)" fill="rgba(0,0,0,0)" stroke="#160d23" stroke-miterlimit="10" stroke-width="1"/>
    <path id="Trazado_25989" data-name="Trazado 25989" d="M735.168,322.251c2.453,3.382,4.867,6.789,7.176,10.236C740.027,329.032,737.614,325.633,735.168,322.251Z" transform="translate(905.44 258.798)" fill="rgba(0,0,0,0)" stroke="#160d23" stroke-miterlimit="10" stroke-width="1"/>
    <path id="Trazado_25990" data-name="Trazado 25990" d="M733.837,320.513c2.858,3.536,5.683,7.12,8.42,10.8C739.545,327.657,736.719,324.073,733.837,320.513Z" transform="translate(896.027 246.505)" fill="rgba(0,0,0,0)" stroke="#160d23" stroke-miterlimit="10" stroke-width="1"/>
    <path id="Trazado_25992" data-name="Trazado 25992" d="M668.863,411.091c83.268-96.41,224.173-105.742,224.109-105.734" transform="translate(436.499 139.322)" fill="rgba(0,0,0,0)" stroke="#160d23" stroke-linecap="square" stroke-miterlimit="10" stroke-width="1"/>
    <path id="Trazado_25993" data-name="Trazado 25993" d="M857.8,332.278c-.888.057-65.932-26.707-159.314-27.095" transform="translate(645.979 138.084)" fill="rgba(0,0,0,0)" stroke="#160d23" stroke-miterlimit="10" stroke-width="1"/>
    <line id="Línea_1080" data-name="Línea 1080" x2="6.332" y2="140.5" transform="translate(1412.708 1744.826)" fill="rgba(0,0,0,0)" stroke="#160d23" stroke-miterlimit="10" stroke-width="1"/>
    <path id="Trazado_25995" data-name="Trazado 25995" d="M1069.949,458.185c-113.693,51.462-236.758,75.284-362.931,81.048" transform="translate(706.35 1220.188)" fill="rgba(0,0,0,0)" stroke="#160d23" stroke-miterlimit="10" stroke-width="1"/>
    <path id="Trazado_25997" data-name="Trazado 25997" d="M831.625,366.326A448.811,448.811,0,0,1,753.241,499.2c-3.463,4.076-7.063,7.968-10.639,11.891l94.3,86.173A580.512,580.512,0,0,0,951.033,411.3" transform="translate(958.017 570.517)" fill="rgba(0,0,0,0)" stroke="#160d23" stroke-miterlimit="10" stroke-width="1"/>
    <path id="Trazado_25998" data-name="Trazado 25998" d="M781.876,344.182A449.562,449.562,0,0,1,753.63,522.939" transform="translate(1036.012 413.904)" fill="rgba(0,0,0,0)" stroke="#160d23" stroke-miterlimit="10" stroke-width="1"/>
    <path id="Trazado_25999" data-name="Trazado 25999" d="M768.422,572.946A574.538,574.538,0,0,0,804.853,343.47" transform="translate(1140.629 408.868)" fill="rgba(0,0,0,0)" stroke="#160d23" stroke-miterlimit="10" stroke-width="1"/>
    <path id="Trazado_26000" data-name="Trazado 26000" d="M772.935,343.47" transform="translate(1172.547 408.868)" fill="rgba(0,0,0,0)" stroke="#160d23" stroke-miterlimit="10" stroke-width="1"/>
    <path id="Trazado_26001" data-name="Trazado 26001" d="M739.661,329.457" transform="translate(937.217 309.762)" fill="rgba(0,0,0,0)" stroke="#160d23" stroke-miterlimit="10" stroke-width="1"/>
    <path id="Trazado_26002" data-name="Trazado 26002" d="M668.578,318.823" transform="translate(434.484 234.553)" fill="rgba(0,0,0,0)" stroke="#160d23" stroke-miterlimit="10" stroke-width="1"/>
    <path id="Trazado_26003" data-name="Trazado 26003" d="M865.464,292.005a472.949,472.949,0,0,0-187.378,38.522" transform="translate(501.729 44.883)" fill="rgba(0,0,0,0)" stroke="#160d23" stroke-miterlimit="10" stroke-width="1"/>
    <path id="Trazado_26004" data-name="Trazado 26004" d="M678.086,296.777" transform="translate(501.729 78.633)" fill="rgba(0,0,0,0)" stroke="#160d23" stroke-miterlimit="10" stroke-width="1"/>
    <path id="Trazado_26005" data-name="Trazado 26005" d="M837.574,426.559,877.69,325.974A478.348,478.348,0,0,0,701.3,292.005" transform="translate(665.895 44.883)" fill="rgba(0,0,0,0)" stroke="#160d23" stroke-miterlimit="10" stroke-width="1"/>
    <path id="Trazado_26007" data-name="Trazado 26007" d="M868.413,371.9A580.518,580.518,0,0,1,754.284,557.863L853.3,648.347" transform="translate(1040.638 609.918)" fill="rgba(0,0,0,0)" stroke="#160d23" stroke-miterlimit="10" stroke-width="1"/>
  </g>
</svg>
