<svg xmlns="http://www.w3.org/2000/svg" xmlns:xlink="http://www.w3.org/1999/xlink" width="977.38" height="895.94" viewBox="0 0 977.38 895.94">
  <defs>
    <linearGradient id="linear-gradient" x1="0.5" x2="0.5" y2="1" gradientUnits="objectBoundingBox">
      <stop offset="0" stop-color="#ff3718"/>
      <stop offset="1" stop-color="#ad0089"/>
    </linearGradient>
    <linearGradient id="linear-gradient-2" x1="0.5" x2="0.5" y2="1" gradientUnits="objectBoundingBox">
      <stop offset="0" stop-color="#ff3718"/>
      <stop offset="0.424" stop-color="#1a153a" stop-opacity="0.102"/>
      <stop offset="1" stop-color="#d1cfd3" stop-opacity="0.502"/>
    </linearGradient>
    <linearGradient id="linear-gradient-9" x1="0.5" x2="0.5" y2="1" gradientUnits="objectBoundingBox">
      <stop offset="0" stop-color="#ad0089"/>
      <stop offset="1" stop-color="#ff3718"/>
    </linearGradient>
    <linearGradient id="linear-gradient-20" x1="0.5" x2="0.5" y2="1" gradientUnits="objectBoundingBox">
      <stop offset="0" stop-color="#d1cfd3"/>
      <stop offset="1" stop-color="#fff"/>
    </linearGradient>
  </defs>
  <g id="P2P-img" transform="matrix(-0.985, 0.174, -0.174, -0.985, 977.38, 746.821)">
    <g id="_01_net" data-name="01 net" transform="translate(130.212 762.191) rotate(-104)">
      <g id="lineas" transform="translate(5.954 19.599)" opacity="0.1">
        <path id="Trazado_25888" data-name="Trazado 25888" d="M69.349,177.295-.01,78.35,13.455,0" transform="translate(389.333 178.702)" fill="none" stroke="#1a153a" stroke-miterlimit="10" stroke-width="1"/>
        <path id="Trazado_26017" data-name="Trazado 26017" d="M98.739,161.895c-5.063,3.874-98.771,81.9-98.771,81.9L111.005,371.984,98.739,161.895,188.494-.025,3.176,39.837,98.739,161.895" transform="translate(270.187 356.022)" fill="none" stroke="#1a153a" stroke-miterlimit="10" stroke-width="1"/>
        <line id="Línea_1066" data-name="Línea 1066" y1="5.338" x2="135.502" transform="translate(389.302 250.22)" fill="none" stroke="#1a153a" stroke-miterlimit="10" stroke-width="1"/>
        <line id="Línea_1071" data-name="Línea 1071" x2="3.102" y2="218.816" transform="translate(109.052 11.74)" fill="none" stroke="#1a153a" stroke-width="1"/>
        <path id="Trazado_25891" data-name="Trazado 25891" d="M20.506,0,56.432,62.114l98.275-25.378,23.912,130.012-68.252,12.925L-.027,200.578l-60.75,165.368" transform="translate(93.56 233.035)" fill="none" stroke="#1a153a" stroke-miterlimit="10" stroke-width="1"/>
        <path id="Trazado_26040" data-name="Trazado 26040" d="M102.687,0,4.572,114.372" transform="translate(108.119 116.328)" fill="none" stroke="#1a153a" stroke-width="1"/>
        <path id="Trazado_25889" data-name="Trazado 25889" d="M236.344,203.849c-.858.065,2.045-203.881,2.045-203.881L-.026,200.4Z" transform="translate(35.737 398.003)" fill="none" stroke="#1a153a" stroke-miterlimit="10" stroke-width="1"/>
        <path id="Trazado_26014" data-name="Trazado 26014" d="M0,0,106.516,105.759" transform="translate(107.406 12.798)" fill="none" stroke="#1a153a" stroke-width="1"/>
        <line id="Línea_1221" data-name="Línea 1221" y1="177.575" x2="62.489" transform="translate(149.069 117.581)" fill="none" stroke="#1a153a" stroke-width="1"/>
        <path id="Trazado_26015" data-name="Trazado 26015" d="M108.484,19.826,0,0" transform="translate(213.442 116.185)" fill="none" stroke="#1a153a" stroke-width="1"/>
        <path id="Trazado_26016" data-name="Trazado 26016" d="M145.039,116.734,19.456,13.434" transform="translate(130.221 282.222)" fill="none" stroke="#1a153a" stroke-width="1"/>
        <line id="Línea_1222" data-name="Línea 1222" x1="97.14" y2="116.369" transform="translate(210.806 -0.041)" fill="none" stroke="#1a153a" stroke-width="1"/>
        <path id="Trazado_26039" data-name="Trazado 26039" d="M69.127,108.966,0,0" transform="translate(309.951 0.459)" fill="none" stroke="#1a153a" stroke-width="1"/>
        <path id="Trazado_26041" data-name="Trazado 26041" d="M203.153,22.022-5.323,1.89" transform="translate(383.738 107.369)" fill="none" stroke="#1a153a" stroke-width="1"/>
        <line id="Línea_1223" data-name="Línea 1223" x2="93.763" y2="144.795" transform="translate(-0.038 287.423)" fill="none" stroke="#1a153a" stroke-width="1"/>
        <path id="Trazado_26042" data-name="Trazado 26042" d="M64.641-1.247,0,118.848" transform="translate(522.508 130.58)" fill="none" stroke="#1a153a" stroke-width="1"/>
        <line id="Línea_1238" data-name="Línea 1238" y1="27.274" x2="59.213" transform="translate(319.244 109.397)" fill="none" stroke="#707070" stroke-width="1"/>
        <line id="Línea_1239" data-name="Línea 1239" x1="24.02" y1="66.521" transform="translate(379.37 109.803)" fill="none" stroke="#707070" stroke-width="1"/>
        <line id="Línea_1240" data-name="Línea 1240" x2="84.653" y2="40.974" transform="translate(318.331 136.264)" fill="none" stroke="#707070" stroke-width="1"/>
        <line id="Línea_1241" data-name="Línea 1241" y1="46.281" x2="183.706" transform="translate(402.577 131.87)" fill="none" stroke="#707070" stroke-width="1"/>
      </g>
      <g id="lineas_gradiente" data-name="lineas gradiente">
        <path id="Trazado_26047" data-name="Trazado 26047" d="M0,0H1V164.2H0Z" transform="translate(278.966 451.413) rotate(1)" fill="url(#linear-gradient)"/>
        <path id="Trazado_26050" data-name="Trazado 26050" d="M0,0H1V140H0Z" transform="translate(247.976 425.444) rotate(80)" fill="url(#linear-gradient-2)"/>
        <path id="Trazado_26053" data-name="Trazado 26053" d="M0,0H1V270H0Z" transform="matrix(0.643, 0.766, -0.766, 0.643, 246.406, 444.911)" fill="url(#linear-gradient-2)"/>
        <path id="Trazado_26057" data-name="Trazado 26057" d="M0,0H1V160H0Z" transform="matrix(0.755, -0.656, 0.656, 0.755, 278.703, 623.087)" fill="url(#linear-gradient-2)"/>
        <path id="Trazado_26051" data-name="Trazado 26051" d="M0,0H1V140H0Z" transform="matrix(-0.629, 0.777, -0.777, -0.629, 263.984, 402.228)" fill="url(#linear-gradient-2)"/>
        <path id="Trazado_26058" data-name="Trazado 26058" d="M0,0H1V120H0Z" transform="matrix(0.788, -0.616, 0.616, 0.788, 296.264, 438.431)" fill="url(#linear-gradient-2)"/>
        <path id="Trazado_26052" data-name="Trazado 26052" d="M0,0H1V100H0Z" transform="translate(271.7 379.522) rotate(170)" fill="url(#linear-gradient-2)"/>
        <path id="Trazado_26056" data-name="Trazado 26056" d="M0,0H1V150H0Z" transform="matrix(-0.208, -0.978, 0.978, -0.208, 313.891, 408.841)" fill="url(#linear-gradient-2)"/>
      </g>
      <g id="elipses-color01" transform="translate(0 0)">
        <g id="_01_nodo" data-name="01 nodo" transform="translate(255.552 600.573)">
          <ellipse id="_01_net-2" data-name="01 net" cx="20" cy="20.01" rx="20" ry="20.01" fill="url(#linear-gradient-9)"/>
        </g>
        <g id="_01_nodo-2" data-name="01 nodo" transform="translate(403.815 192.599)">
          <ellipse id="_01_net-3" data-name="01 net" cx="5.164" cy="5.167" rx="5.164" ry="5.167" fill="url(#linear-gradient-9)"/>
        </g>
        <g id="_01_nodo-3" data-name="01 nodo" transform="translate(379.669 123.665)">
          <ellipse id="_01_net-4" data-name="01 net" cx="5.164" cy="5.167" rx="5.164" ry="5.167" fill="url(#linear-gradient-9)"/>
        </g>
        <g id="_01_nodo-4" data-name="01 nodo" transform="translate(307.65 14.976)">
          <ellipse id="_01_net-5" data-name="01 net" cx="5.164" cy="5.167" rx="5.164" ry="5.167" fill="url(#linear-gradient-9)"/>
        </g>
        <g id="_01_nodo-5" data-name="01 nodo" transform="translate(319.466 151.593)">
          <ellipse id="_01_net-6" data-name="01 net" cx="5.164" cy="5.167" rx="5.164" ry="5.167" fill="url(#linear-gradient-9)"/>
        </g>
        <g id="_01_nodo-6" data-name="01 nodo" transform="translate(112.17 30.287)">
          <ellipse id="_01_net-7" data-name="01 net" cx="6.414" cy="6.417" rx="6.414" ry="6.417" fill="url(#linear-gradient-9)"/>
        </g>
        <g id="_01_nodo-7" data-name="01 nodo" transform="translate(388.823 269.806)">
          <ellipse id="_01_net-8" data-name="01 net" cx="5.164" cy="5.167" rx="5.164" ry="5.167" fill="url(#linear-gradient-9)"/>
        </g>
        <g id="_01_nodo-8" data-name="01 nodo" transform="translate(521.97 264.661)">
          <ellipse id="_01_net-9" data-name="01 net" cx="5.164" cy="5.167" rx="5.164" ry="5.167" fill="url(#linear-gradient-9)"/>
        </g>
        <g id="_01_nodo-9" data-name="01 nodo" transform="translate(233.643 143.877)">
          <ellipse id="_01_net-10" data-name="01 net" cx="41.315" cy="41.336" rx="41.315" ry="41.336" transform="translate(0 231.95)" fill="url(#linear-gradient-9)"/>
          <circle id="_01_net-11" data-name="01 net" cx="6.414" cy="6.414" r="6.414" transform="translate(351.835 0)" fill="url(#linear-gradient-9)"/>
        </g>
        <g id="_01_nodo-10" data-name="01 nodo" transform="translate(207.777 124.994)">
          <circle id="_01_net-12" data-name="01 net" cx="10.329" cy="10.329" r="10.329" fill="url(#linear-gradient-9)"/>
        </g>
        <g id="_01_nodo-11" data-name="01 nodo" transform="matrix(0.052, 0.999, -0.999, 0.052, 112.583, 438.539)">
          <ellipse id="_01_net-13" data-name="01 net" cx="15" cy="15.007" rx="15" ry="15.007" fill="url(#linear-gradient-20)"/>
        </g>
        <g id="_01_nodo-12" data-name="01 nodo" transform="matrix(0.052, 0.999, -0.999, 0.052, 381.998, 526.746)">
          <ellipse id="_01_net-14" data-name="01 net" cx="10" cy="10.005" rx="10" ry="10.005" fill="url(#linear-gradient-20)"/>
        </g>
        <g id="_01_nodo-13" data-name="01 nodo" transform="matrix(0.052, 0.999, -0.999, 0.052, 10.224, 302.111)">
          <ellipse id="_01_net-15" data-name="01 net" cx="5" cy="5.002" rx="5" ry="5.002" fill="url(#linear-gradient-20)"/>
        </g>
        <g id="_01_nodo-14" data-name="01 nodo" transform="matrix(0.052, 0.999, -0.999, 0.052, 160.084, 309.723)">
          <ellipse id="_01_net-16" data-name="01 net" cx="5" cy="5.002" rx="5" ry="5.002" fill="url(#linear-gradient-20)"/>
        </g>
        <g id="_01_nodo-15" data-name="01 nodo" transform="matrix(0.052, 0.999, -0.999, 0.052, 44.338, 613.947)">
          <ellipse id="_01_net-17" data-name="01 net" cx="5" cy="5.002" rx="5" ry="5.002" fill="url(#linear-gradient-20)"/>
        </g>
        <g id="_01_nodo-16" data-name="01 nodo" transform="matrix(0.052, 0.999, -0.999, 0.052, 389.778, 740.38)">
          <ellipse id="_01_net-18" data-name="01 net" cx="5" cy="5.002" rx="5" ry="5.002" fill="url(#linear-gradient-20)"/>
        </g>
        <g id="_01_nodo-17" data-name="01 nodo" transform="matrix(0.052, 0.999, -0.999, 0.052, 259.505, 280.648)">
          <ellipse id="_01_net-19" data-name="01 net" cx="5" cy="5.002" rx="5" ry="5.002" fill="url(#linear-gradient-20)"/>
        </g>
        <g id="_01_nodo-18" data-name="01 nodo" transform="matrix(0.052, 0.999, -0.999, 0.052, 468.507, 369.323)">
          <ellipse id="_01_net-20" data-name="01 net" cx="5" cy="5.002" rx="5" ry="5.002" fill="url(#linear-gradient-20)"/>
        </g>
        <g id="_01_nodo-19" data-name="01 nodo" transform="matrix(0.052, 0.999, -0.999, 0.052, 128.756, 239.948)">
          <ellipse id="_01_net-21" data-name="01 net" cx="10" cy="10.005" rx="10" ry="10.005" fill="url(#linear-gradient-20)"/>
        </g>
      </g>
    </g>
  </g>
</svg>
