<svg id="_06_partners_net" data-name="06 partners net" xmlns="http://www.w3.org/2000/svg" xmlns:xlink="http://www.w3.org/1999/xlink" width="861.792" height="924.854" viewBox="0 0 861.792 924.854">
  <defs>
    <linearGradient id="linear-gradient" x1="0.5" x2="0.5" y2="1" gradientUnits="objectBoundingBox">
      <stop offset="0" stop-color="#ff3718"/>
      <stop offset="0.424" stop-color="#1a153a" stop-opacity="0.102"/>
      <stop offset="1" stop-color="#d1cfd3" stop-opacity="0.502"/>
    </linearGradient>
    <linearGradient id="linear-gradient-5" x1="0.5" x2="0.5" y2="1" gradientUnits="objectBoundingBox">
      <stop offset="0" stop-color="#d1cfd3"/>
      <stop offset="1" stop-color="#fff"/>
    </linearGradient>
    <linearGradient id="linear-gradient-22" x1="0.5" x2="0.5" y2="1" gradientUnits="objectBoundingBox">
      <stop offset="0" stop-color="#ad0089"/>
      <stop offset="1" stop-color="#ff3718"/>
    </linearGradient>
  </defs>
  <g id="_06_partners_net-2" data-name="06 partners net" transform="matrix(-0.891, 0.454, -0.454, -0.891, 862.783, 655.573)">
    <g id="lineas" transform="translate(5.956 4.582)" opacity="0.1">
      <path id="Trazado_25888" data-name="Trazado 25888" d="M69.359,177.3,0,78.352,13.466,0" transform="translate(389.36 178.741)" fill="none" stroke="#1a153a" stroke-miterlimit="10" stroke-width="1"/>
      <path id="Trazado_26017" data-name="Trazado 26017" d="M98.771,161.92C93.708,165.793,0,243.817,0,243.817L111.037,372.009,98.771,161.92,188.526,0,3.208,39.862,98.771,161.92" transform="translate(270.193 356.037)" fill="none" stroke="#1a153a" stroke-miterlimit="10" stroke-width="1"/>
      <line id="Línea_1066" data-name="Línea 1066" y1="5.338" x2="135.502" transform="translate(389.34 250.26)" fill="none" stroke="#1a153a" stroke-miterlimit="10" stroke-width="1"/>
      <path id="Trazado_25891" data-name="Trazado 25891" d="M81.282,0l35.927,62.117,98.275-25.378L239.4,166.751,60.75,200.581,0,365.949" transform="translate(32.821 233.073)" fill="none" stroke="#1a153a" stroke-miterlimit="10" stroke-width="1"/>
      <path id="Trazado_25889" data-name="Trazado 25889" d="M236.371,203.881C235.513,203.946,238.416,0,238.416,0L0,200.431Z" transform="translate(35.748 398.012)" fill="none" stroke="#1a153a" stroke-miterlimit="10" stroke-width="1"/>
      <path id="Trazado_26014" data-name="Trazado 26014" d="M106.516,105.759" transform="translate(107.406 12.798)" fill="none" stroke="#1a153a" stroke-width="1"/>
      <path id="Trazado_26015" data-name="Trazado 26015" d="M108.484,19.826,0,0" transform="translate(213.48 116.225)" fill="none" stroke="#1a153a" stroke-width="1"/>
      <path id="Trazado_26016" data-name="Trazado 26016" d="M125.582,103.3,0,0" transform="translate(149.716 295.696)" fill="none" stroke="#1a153a" stroke-width="1"/>
      <path id="Trazado_26039" data-name="Trazado 26039" d="M69.127,108.966,0,0" transform="translate(309.989 0.5)" fill="none" stroke="#1a153a" stroke-width="1"/>
      <path id="Trazado_26041" data-name="Trazado 26041" d="M208.476,20.132,0,0" transform="translate(378.453 109.3)" fill="none" stroke="#1a153a" stroke-width="1"/>
      <line id="Línea_1223" data-name="Línea 1223" x2="93.763" y2="144.795" transform="translate(0 287.464)" fill="none" stroke="#1a153a" stroke-width="1"/>
      <path id="Trazado_26042" data-name="Trazado 26042" d="M64.641,0,0,120.1" transform="translate(522.546 129.373)" fill="none" stroke="#1a153a" stroke-width="1"/>
      <line id="Línea_1238" data-name="Línea 1238" y1="27.274" x2="59.213" transform="translate(319.282 109.437)" fill="none" stroke="#707070" stroke-width="1"/>
      <line id="Línea_1239" data-name="Línea 1239" x1="24.02" y1="66.521" transform="translate(379.408 109.844)" fill="none" stroke="#707070" stroke-width="1"/>
      <line id="Línea_1240" data-name="Línea 1240" x2="84.653" y2="40.974" transform="translate(318.369 136.305)" fill="none" stroke="#707070" stroke-width="1"/>
      <line id="Línea_1241" data-name="Línea 1241" y1="46.281" x2="183.706" transform="translate(402.615 131.911)" fill="none" stroke="#707070" stroke-width="1"/>
      <line id="Línea_1242" data-name="Línea 1242" x1="152.434" y1="9.207" transform="translate(-3.286 285.785)" fill="none" stroke="#707070" stroke-width="1"/>
    </g>
    <g id="lineas_gradientes" data-name="lineas gradientes">
      <path id="Trazado_26043" data-name="Trazado 26043" d="M0,0H1V172H0Z" transform="matrix(0.94, 0.342, -0.342, 0.94, 216.794, 125.398)" fill="url(#linear-gradient)"/>
      <path id="Trazado_26045" data-name="Trazado 26045" d="M0,0H1V140H0Z" transform="matrix(-0.777, -0.629, 0.629, -0.777, 222.863, 116.333)" fill="url(#linear-gradient)"/>
      <path id="Trazado_26046" data-name="Trazado 26046" d="M0,0H1V140H0Z" transform="translate(211.719 125.863) rotate(41)" fill="url(#linear-gradient)"/>
      <path id="Trazado_26044" data-name="Trazado 26044" d="M0,0H1V110H0Z" transform="translate(213.332 121.074) rotate(-80)" fill="url(#linear-gradient)"/>
    </g>
    <g id="elipses-color01" transform="translate(0 0)">
      <g id="_01_nodo" data-name="01 nodo" transform="translate(265.434 595.453)">
        <ellipse id="_01_net" data-name="01 net" cx="10" cy="10.005" rx="10" ry="10.005" fill="url(#linear-gradient-5)"/>
      </g>
      <g id="_01_nodo-2" data-name="01 nodo" transform="translate(37.817 597.062)">
        <ellipse id="_01_net-2" data-name="01 net" cx="5.164" cy="5.167" rx="5.164" ry="5.167" fill="url(#linear-gradient-5)"/>
      </g>
      <g id="_01_nodo-3" data-name="01 nodo" transform="translate(82.333 421.241)">
        <ellipse id="_01_net-3" data-name="01 net" cx="15" cy="15.007" rx="15" ry="15.007" fill="url(#linear-gradient-5)"/>
      </g>
      <g id="_01_nodo-4" data-name="01 nodo" transform="translate(403.855 177.623)">
        <ellipse id="_01_net-4" data-name="01 net" cx="5.164" cy="5.167" rx="5.164" ry="5.167" fill="url(#linear-gradient-5)"/>
      </g>
      <g id="_01_nodo-5" data-name="01 nodo" transform="translate(379.708 108.689)">
        <ellipse id="_01_net-5" data-name="01 net" cx="5.164" cy="5.167" rx="5.164" ry="5.167" fill="url(#linear-gradient-5)"/>
      </g>
      <g id="_01_nodo-6" data-name="01 nodo" transform="translate(307.69 0)">
        <ellipse id="_01_net-6" data-name="01 net" cx="5.164" cy="5.167" rx="5.164" ry="5.167" fill="url(#linear-gradient-5)"/>
      </g>
      <g id="_01_nodo-7" data-name="01 nodo" transform="translate(318.611 134.078)">
        <ellipse id="_01_net-7" data-name="01 net" cx="5.164" cy="5.167" rx="5.164" ry="5.167" fill="url(#linear-gradient-5)"/>
      </g>
      <g id="_01_nodo-8" data-name="01 nodo" transform="translate(388.863 254.83)">
        <ellipse id="_01_net-8" data-name="01 net" cx="5.164" cy="5.167" rx="5.164" ry="5.167" fill="url(#linear-gradient-5)"/>
      </g>
      <g id="_01_nodo-9" data-name="01 nodo" transform="translate(459.557 355.532)">
        <ellipse id="_01_net-9" data-name="01 net" cx="5.164" cy="5.167" rx="5.164" ry="5.167" fill="url(#linear-gradient-5)"/>
      </g>
      <g id="_01_nodo-10" data-name="01 nodo" transform="translate(381.962 725.999)">
        <ellipse id="_01_net-10" data-name="01 net" cx="5.164" cy="5.167" rx="5.164" ry="5.167" fill="url(#linear-gradient-5)"/>
      </g>
      <g id="_01_nodo-11" data-name="01 nodo" transform="translate(364.923 510.686)">
        <circle id="_01_net-11" data-name="01 net" cx="10" cy="10" r="10" fill="url(#linear-gradient-5)"/>
      </g>
      <g id="_01_nodo-12" data-name="01 nodo" transform="translate(522.009 249.685)">
        <ellipse id="_01_net-12" data-name="01 net" cx="5.164" cy="5.167" rx="5.164" ry="5.167" fill="url(#linear-gradient-5)"/>
      </g>
      <g id="_01_nodo-13" data-name="01 nodo" transform="translate(1.112 288.723)">
        <circle id="_01_net-13" data-name="01 net" cx="3" cy="3" r="3" fill="url(#linear-gradient-5)"/>
      </g>
      <g id="_01_nodo-14" data-name="01 nodo" transform="translate(250.478 272.046)">
        <circle id="_01_net-14" data-name="01 net" cx="3" cy="3" r="3" fill="url(#linear-gradient-5)"/>
      </g>
      <g id="_01_nodo-15" data-name="01 nodo" transform="translate(145.214 289.975)">
        <circle id="_01_net-15" data-name="01 net" cx="10" cy="10" r="10" fill="url(#linear-gradient-5)"/>
      </g>
      <g id="_01_nodo-16" data-name="01 nodo" transform="translate(272.661 398.411)">
        <circle id="_01_net-16" data-name="01 net" cx="5" cy="5" r="5" fill="url(#linear-gradient-5)"/>
      </g>
      <g id="_06_nodo_net" data-name="06 nodo net" transform="translate(113.171 228.901)">
        <circle id="_06_nodo_net-2" data-name="06 nodo net" cx="5" cy="5" r="5" transform="translate(0 0)" fill="url(#linear-gradient-5)"/>
      </g>
      <g id="_01_nodo-17" data-name="01 nodo" transform="translate(207.817 110.019)">
        <circle id="_01_net-17" data-name="01 net" cx="10.329" cy="10.329" r="10.329" fill="url(#linear-gradient-22)"/>
      </g>
    </g>
  </g>
</svg>
