<svg xmlns="http://www.w3.org/2000/svg" width="20.5" height="19.938" viewBox="0 0 20.5 19.938">
  <g id="github_black" transform="translate(0 0)">
    <g id="Grupo_3" data-name="Grupo 3" transform="translate(0 0)">
      <path id="Trazado_3" data-name="Trazado 3" d="M51.866,43.173a10.25,10.25,0,1,0-13.585,9.686.982.982,0,0,0,.528-.763c0-.563-.012-2.012-.012-2.012a7.115,7.115,0,0,1-1.08.076,2.32,2.32,0,0,1-2.347-1.582,2.773,2.773,0,0,0-1.151-1.364c-.265-.171-.326-.371-.019-.429,1.416-.265,1.778,1.6,2.724,1.893a2.662,2.662,0,0,0,1.975-.157,2.04,2.04,0,0,1,.813-1.319c-2.405-.23-3.832-1.06-4.571-2.394l-.079-.149-.186-.424-.055-.152a7.175,7.175,0,0,1-.334-2.319,3.956,3.956,0,0,1,1.13-2.939,4.1,4.1,0,0,1,.178-2.952s1.041-.215,3.009,1.186a10.979,10.979,0,0,1,5.257-.1c.825-.543,2.336-1.312,2.946-1.1a3.81,3.81,0,0,1,.216,2.724,4.755,4.755,0,0,1,1.287,3.394,8.776,8.776,0,0,1-.264,2.107l-.089.3s-.051.142-.106.277l-.065.149c-.714,1.557-2.177,2.139-4.543,2.381.766.479.986,1.081.986,2.709s-.022,1.846-.017,2.221a1.033,1.033,0,0,0,.508.749A10.246,10.246,0,0,0,51.866,43.173Z" transform="translate(-31.367 -32.932)" fill="#fff"/>
    </g>
  </g>
</svg>
