<svg id="sprawl-logo" xmlns="http://www.w3.org/2000/svg" xmlns:xlink="http://www.w3.org/1999/xlink" width="205.722" height="52.313" viewBox="0 0 205.722 52.313">
  <defs>
    <radialGradient id="radial-gradient" cx="49.393" cy="36.836" r="54.429" gradientTransform="translate(0.097 -0.111) scale(0.996 0.992)" gradientUnits="userSpaceOnUse">
      <stop offset="0" stop-color="#ee3e26"/>
      <stop offset="1" stop-color="#aa2188"/>
    </radialGradient>
  </defs>
  <g id="Grupo_4234" data-name="Grupo 4234">
    <path id="Trazado_25795" data-name="Trazado 25795" d="M58.357,65.022a7.427,7.427,0,0,0,.416,3.508,6.972,6.972,0,0,1-.915-.34c-.262-.116-.528-.248-.832-.414l-.108-.058h-.025c-.225-.124-.416-.24-.6-.352h0l-.279-.182c-.162-.1-.329-.211-.478-.327h0a6.844,6.844,0,0,1-2.258-3.015v-.066a.759.759,0,0,1-.046-.265h0a.5.5,0,0,1,.05-.211h0a.661.661,0,0,1,.374-.3l1.984-.783a.574.574,0,0,1,.832.381,5.062,5.062,0,0,0,1.813,2.158l.083.05h.021a.675.675,0,0,1-.029.116A.4.4,0,0,0,58.357,65.022Zm-5.892-.994a.825.825,0,0,1-.033-.137h-.1a5.092,5.092,0,0,1-2.524-1.085.571.571,0,0,0-.911.041l-1.406,1.6a.754.754,0,0,0-.15.224.5.5,0,0,0-.046.215.462.462,0,0,0,.054.219.766.766,0,0,0,.162.219l.008.029.033.029a6.877,6.877,0,0,0,3.389,1.657h0a9.572,9.572,0,0,0,1.123.137h.366c.353,0,.736.025,1.148,0a7.609,7.609,0,0,0,.832-.1h.067a7.519,7.519,0,0,1-1.967-2.94A.957.957,0,0,1,52.465,64.028ZM38.035,60.959a5.447,5.447,0,0,0,2,2.141h0a3.967,3.967,0,0,0,1.95.48,7.513,7.513,0,0,0,1.984-.3h0c.358-.1.736-.22,1.135-.369,1.638-.6,2.458-.667,2.957-.17l.32-.364a1.3,1.3,0,0,1,.961-.468,1.371,1.371,0,0,1,.882.352,4.333,4.333,0,0,0,2.142.932,5.476,5.476,0,0,0-.649-2.029c-2.47-.369-4.038-1.242-4.853-2.775a10.221,10.221,0,0,0-2.329.621c-1.88.716-2.715.679-3.185-.12a1.621,1.621,0,0,1,.8-2.406,3.825,3.825,0,0,1,2.1-.567.557.557,0,0,0,.557-.435l.57-2.377a.568.568,0,0,0-.5-.7,7.758,7.758,0,0,0-4.645,1.242c-2.258,1.313-3.293,3.313-2.911,5.425l.191.733a5.786,5.786,0,0,0,.52,1.147ZM65.21,94.952A5.458,5.458,0,0,0,63.742,92.4h0a4.845,4.845,0,0,0-3.389-1.093h-.374L58.8,91.4c-1.788.215-2.6.075-2.948-.572l-.491.34a1.388,1.388,0,0,1-.773.277,1.278,1.278,0,0,1-1.044-.58A4.334,4.334,0,0,0,51.8,89.494a5.519,5.519,0,0,0,.175,2.137c2.2.936,3.443,2.133,3.859,3.76a10.021,10.021,0,0,0,2.57-.046c2-.261,2.8-.033,3.069.853.312,1.031-.162,1.8-1.343,2.154a3.757,3.757,0,0,1-2.383,0,.579.579,0,0,0-.724.348l-.773,2.27a.571.571,0,0,0,.37.729,7.649,7.649,0,0,0,4.749-.157c2.495-.75,3.98-2.485,4.1-4.6l-.067-1.213A6.8,6.8,0,0,0,65.21,94.952ZM51.591,88.612v.075c.129.041.237.083.337.12a5.137,5.137,0,0,1,2.142,1.657.571.571,0,0,0,.894.174l1.746-1.218a.579.579,0,0,0,.3-.609.752.752,0,0,0-.108-.248v-.05a6.842,6.842,0,0,0-2.853-2.394A10.118,10.118,0,0,0,53,85.7a12.831,12.831,0,0,0-1.547-.414,7.707,7.707,0,0,0-.832-.1h-.254a7.387,7.387,0,0,1,1.248,3.338ZM46.98,65.85a.414.414,0,0,1-.054-.062h0l-.229.1a5.118,5.118,0,0,1-2.728.182,1.028,1.028,0,0,0-.237-.029c-.291,0-.466.153-.553.485l-.507,2.071a.652.652,0,0,0,.029.489.624.624,0,0,0,.416.286h.067a6.959,6.959,0,0,0,3.742-.079c.187-.054.374-.116.578-.186h0c.233-.083.478-.186.773-.323a12.032,12.032,0,0,0,1.106-.572,5.047,5.047,0,0,0,.516-.344l.062-.041.279-.215a7.52,7.52,0,0,1-3.164-1.677ZM72.545,87.464a5.408,5.408,0,0,0-2.495-1.586h0a3.8,3.8,0,0,0-.919-.112,5.918,5.918,0,0,0-2.857.882h0c-.341.191-.69.414-1.056.663-1.455,1-2.241,1.242-2.844.882l-.254.489a1.248,1.248,0,0,1-1.106.721,1.477,1.477,0,0,1-.657-.162,4.589,4.589,0,0,0-1.875-.414,3.523,3.523,0,0,0-.362,0,5.563,5.563,0,0,0,1.148,1.818c.378-.033.744-.058,1.077-.058a5.339,5.339,0,0,1,4.192,1.561,10.072,10.072,0,0,0,2.2-1.205c1.643-1.155,2.462-1.325,3.115-.663a1.619,1.619,0,0,1-.183,2.526,3.83,3.83,0,0,1-2,1.089.555.555,0,0,0-.445.576l.091,2.419a.573.573,0,0,0,.657.543,7.72,7.72,0,0,0,4.25-2.352c1.859-1.822,2.366-4.021,1.493-5.96l-.586-.99A5.8,5.8,0,0,0,72.545,87.464Zm-36.1,2.506a5.454,5.454,0,0,0,2.37-1.744h0a5,5,0,0,0,.636-3.843h0a11.78,11.78,0,0,0-.237-1.176c-.416-1.719-.374-2.539.2-2.965l-.362-.414a1.239,1.239,0,0,1,.1-1.839,4.428,4.428,0,0,0,1.181-1.938,5.517,5.517,0,0,0-2.108.414c-.669,2.315-1.73,3.727-3.327,4.349a9.848,9.848,0,0,0,.349,2.485c.491,1.942.358,2.762-.495,3.131a1.643,1.643,0,0,1-2.308-1.073,4.052,4.052,0,0,1-.274-2.315.559.559,0,0,0-.416-.646l-2.349-.634a.574.574,0,0,0-.707.439,7.63,7.63,0,0,0,.7,4.717C30.771,90.028,33.54,91.229,36.442,89.97ZM32.06,80.445A5.509,5.509,0,0,0,34.97,80h0a5.064,5.064,0,0,0,2.374-3.139h0c.121-.348.233-.716.333-1.118.416-1.735.861-2.439,1.584-2.539l-.146-.58a1.242,1.242,0,0,1,.956-1.578,4.432,4.432,0,0,0,1.909-1.126,5.618,5.618,0,0,0-2.079-.6c-1.514,1.561-2.911,2.3-4.416,2.3a3.728,3.728,0,0,1-.478-.041A9.8,9.8,0,0,0,34.118,74c-.47,1.947-.973,2.613-1.9,2.547-1.077-.079-1.63-.8-1.539-2.021a3.8,3.8,0,0,1,.773-2.12.562.562,0,0,0-.05-.733l-1.7-1.735a.575.575,0,0,0-.832.033A7.7,7.7,0,0,0,27.269,74.5c-.208,2.808,1.077,4.908,3.327,5.661l.832.2q.313.065.632.1ZM57.222,54.767a5.448,5.448,0,0,0-.59,2.816,5.1,5.1,0,0,0,2.262,3.45h0a9.522,9.522,0,0,0,.832.6c1.4.953,1.934,1.574,1.855,2.245l.574.062A1.331,1.331,0,0,1,63.4,65.481a4.255,4.255,0,0,0,.391,2.125A5.509,5.509,0,0,0,65,65.949c-1.056-2.166-1.218-3.9-.462-5.413A9.758,9.758,0,0,0,62.594,58.9c-1.663-1.114-2.129-1.814-1.742-2.655a1.634,1.634,0,0,1,2.433-.741,3.767,3.767,0,0,1,1.7,1.483.563.563,0,0,0,.69.207l2.258-.919a.566.566,0,0,0,.279-.828,7.623,7.623,0,0,0-3.742-3.114c-3.077-1.375-5.942-.414-7.248,2.456ZM44.788,96.377a5.5,5.5,0,0,0,1.281-2.63h0a5.036,5.036,0,0,0-1.247-3.727h0c-.225-.3-.47-.6-.748-.915-1.181-1.338-1.53-2.071-1.206-2.733l-.532-.195A1.241,1.241,0,0,1,41.57,84.5a4.4,4.4,0,0,0,.146-2.236,5.568,5.568,0,0,0-1.663,1.346c.491,2.361.22,4.088-.9,5.384a9.873,9.873,0,0,0,1.48,2.071c1.343,1.491,1.609,2.282,1.027,3a1.64,1.64,0,0,1-2.541.12,3.773,3.773,0,0,1-1.314-1.831.57.57,0,0,0-.645-.373l-2.387.443a.568.568,0,0,0-.453.675,7.8,7.8,0,0,0,2.828,3.835C39.794,99.061,42.809,98.837,44.788,96.377ZM55.047,95.23h0a5.071,5.071,0,0,0-2.778-2.667h0c-.353-.17-.732-.335-1.152-.493-1.663-.634-2.325-1.131-2.345-1.855l-.549.07a1.57,1.57,0,0,1-.2,0,1.246,1.246,0,0,1-1.247-1.139,4.456,4.456,0,0,0-.927-2.071,5.414,5.414,0,0,0-.861,1.963h0c1.547,1.872,2.117,3.529,1.726,5.185a9.814,9.814,0,0,0,2.254,1.127c1.888.7,2.495,1.271,2.316,2.178-.208,1.06-.99,1.52-2.2,1.288a4.1,4.1,0,0,1-2.079-1.064.567.567,0,0,0-.778,0l-1.8,1.607a.566.566,0,0,0-.025.828,7.929,7.929,0,0,0,4.246,2.034c3.327.646,5.9-.953,6.5-4.05A5.458,5.458,0,0,0,55.047,95.23ZM32.638,69.966a5.449,5.449,0,0,0,2.823.944h.046a5.1,5.1,0,0,0,3.435-1.623h0c.287-.265.578-.563.877-.895,1.189-1.321,1.892-1.752,2.574-1.512l.137-.538a1.217,1.217,0,0,1,1.2-.99,1.8,1.8,0,0,1,.366.041,4.954,4.954,0,0,0,.94.1,4.107,4.107,0,0,0,1.314-.22,5.491,5.491,0,0,0-1.543-1.5,8.977,8.977,0,0,1-2.79.526,4.617,4.617,0,0,1-2.665-.783,16.7,16.7,0,0,0-1.871,1.7c-1.331,1.5-2.079,1.86-2.873,1.371a1.6,1.6,0,0,1-.416-2.485,3.812,3.812,0,0,1,1.663-1.512.558.558,0,0,0,.3-.65l-.6-2.381a.57.57,0,0,0-.761-.389,7.57,7.57,0,0,0-3.622,3.313c-1.8,2.849-1.223,5.806,1.464,7.475Zm13.635,16.6a5.056,5.056,0,0,1,1.152,2.485c.067.439.291.613.707.567l2.117-.265a.572.572,0,0,0,.6-.687.054.054,0,0,0,0-.025V88.6a6.8,6.8,0,0,0-1.418-3.45c-.1-.137-.216-.273-.324-.414a11.7,11.7,0,0,0-1.58-1.508,6.932,6.932,0,0,0-.911-.609,7.361,7.361,0,0,1-.457,3.524l-.037.1a.488.488,0,0,1-.046.079l.062.058A2.233,2.233,0,0,1,46.273,86.562ZM78.458,76.6a.442.442,0,0,0,.628-.153,7.454,7.454,0,0,0,.482-5.1c-.661-3.313-3.115-5.073-6.238-4.46A5.625,5.625,0,0,0,70.74,68h0a5.069,5.069,0,0,0-1.551,3.905c0,.319-.021.65,0,1.006.042,1.822-.187,2.6-.894,2.9l.308.567a1.24,1.24,0,0,1-.536,1.764A4.461,4.461,0,0,0,66.52,79.67a5.578,5.578,0,0,0,2.171.058c1.185-2.042,2.5-3.114,4.158-3.342a9.413,9.413,0,0,0,.241-2.717c-.067-2,.241-2.779,1.152-2.961,1.06-.211,1.788.335,2.025,1.541a3.746,3.746,0,0,1-.22,2.348.442.442,0,0,0,.158.547Zm-31.923-6.44a7.515,7.515,0,0,1-3.555-.054l-.1-.025-.091-.037c0,.029-.037.054-.054.079a2.369,2.369,0,0,1-.158.2,5.16,5.16,0,0,1-2.3,1.4.575.575,0,0,0-.487.766l.511,2.071a1.12,1.12,0,0,0,.091.236l.025.029.021.025a.609.609,0,0,0,.1.1l.054.033a.492.492,0,0,0,.137.054h.087a.835.835,0,0,0,.225,0H41.1a6.894,6.894,0,0,0,3.264-1.818,10.09,10.09,0,0,0,1.114-1.284c.225-.3.416-.567.574-.828a6.31,6.31,0,0,0,.482-.953Zm29.033,7.227a5.5,5.5,0,0,0-2.982-.236h0a5.075,5.075,0,0,0-2.911,2.336h0A12.634,12.634,0,0,0,69,80.635c-.832,1.578-1.406,2.166-2.129,2.1v.592a1.245,1.245,0,0,1-1.3,1.313,4.471,4.471,0,0,0-2.129.654,5.544,5.544,0,0,0,1.867,1.069,7.131,7.131,0,0,1,3.8-1.329,4.515,4.515,0,0,1,1.5.257,9.428,9.428,0,0,0,1.443-2.125c.915-1.781,1.564-2.311,2.449-2.029,1.027.327,1.393,1.155,1.019,2.323a3.729,3.729,0,0,1-1.643,2.154c-.021,0,.927,1.7,1.422,2.58a.571.571,0,0,0,.832.186,7.6,7.6,0,0,0,2.72-4.1C79.872,81.066,78.583,78.345,75.568,77.384ZM57.546,88.152a.33.33,0,0,1,.033.066c.125-.025.237-.041.341-.054a4.953,4.953,0,0,1,.553-.033,5.3,5.3,0,0,1,2.158.485.575.575,0,0,0,.873-.257l.986-1.884a.586.586,0,0,0,0-.675.71.71,0,0,0-.216-.174.084.084,0,0,0-.033,0H62.2a6.9,6.9,0,0,0-3.663-.783,5.361,5.361,0,0,0-.624.054,10.774,10.774,0,0,0-1.322.24c-.225.058-.462.12-.69.191s-.416.149-.615.228l-.062.025-.349.161a7.425,7.425,0,0,1,2.636,2.365ZM43.973,77.889h0a9.2,9.2,0,0,0,.316-1.242,12.826,12.826,0,0,0,.179-1.392,5.676,5.676,0,0,0,0-.65V74.53a1.665,1.665,0,0,0-.029-.389,7.43,7.43,0,0,1-3.156,1.611l-.1.025h-.067a1.447,1.447,0,0,1-.071.34,5.1,5.1,0,0,1-1.4,2.357.57.57,0,0,0-.071.907l1.418,1.582a.76.76,0,0,0,.22.182h.075a.467.467,0,0,0,.15.037.5.5,0,0,0,.137,0h.071a.667.667,0,0,0,.212-.116h.025a.1.1,0,0,1,.029-.029A6.806,6.806,0,0,0,43.973,77.889ZM65.039,61.211h0a5.072,5.072,0,0,0,.333,3.868h0c.15.348.32.712.524,1.089.832,1.574,1,2.381.532,2.936l.362.232a1.24,1.24,0,0,1,.391,1.8,4.335,4.335,0,0,0-.615,2.2,13.946,13.946,0,0,0,1.921-.866c0-2.543.661-4.237,2.112-5.268A10.217,10.217,0,0,0,69.7,65.1c-.956-1.764-1.031-2.593-.3-3.16a1.629,1.629,0,0,1,2.5.476,3.811,3.811,0,0,1,.832,1.88.56.56,0,0,0,.524.485l2.441.162a.568.568,0,0,0,.607-.613,7.857,7.857,0,0,0-1.834-4.179C72.4,57.476,69.41,57,66.906,58.925a5.434,5.434,0,0,0-1.867,2.286ZM42.584,85.526l2,.741a.835.835,0,0,0,.279.062h.087l.067-.025a.582.582,0,0,0,.274-.182V86.1a.642.642,0,0,0,.087-.137h0v-.058a6.791,6.791,0,0,0,.374-3.649h0v-.066c-.029-.174-.079-.356-.125-.534l-.05-.191a11.591,11.591,0,0,0-.615-1.835,4.949,4.949,0,0,0-.3-.576L44.63,79l-.191-.315a7.43,7.43,0,0,1-2.054,2.9l-.083.075-.054.041c.029.1.058.2.083.3a5.1,5.1,0,0,1-.141,2.713.567.567,0,0,0,.4.824Zm25.141-7.993a.571.571,0,0,0,.283-.866L67,74.8a.894.894,0,0,0-.141-.195l-.042-.037a.5.5,0,0,0-.146-.091h0a.5.5,0,0,0-.208-.029h-.025a.834.834,0,0,0-.254.07H66.15a6.858,6.858,0,0,0-2.707,2.522h0c-.15.236-.3.505-.466.828a11.569,11.569,0,0,0-.657,1.657,6.191,6.191,0,0,0-.241,1.085,7.639,7.639,0,0,1,3.46-.828h.175A3.9,3.9,0,0,1,65.9,79.4h0a5.108,5.108,0,0,1,1.83-1.86Zm-1.318-7.625-1.792-1.151a.8.8,0,0,0-.225-.108h-.067a.532.532,0,0,0-.154,0h-.017a.554.554,0,0,0-.179.07h-.029a.793.793,0,0,0-.179.174h0a6.823,6.823,0,0,0-1.173,3.562,11.069,11.069,0,0,0,.22,2.725c.046.22.1.414.162.6v.066c.042.124.083.24.121.344a7.4,7.4,0,0,1,2.665-2.328l.1-.054H65.9a3.063,3.063,0,0,1-.021-.319A5.086,5.086,0,0,1,66.59,70.8a.562.562,0,0,0-.183-.895ZM62.665,84.988l.279-.2a5.154,5.154,0,0,1,2.578-.828c.445,0,.649-.207.653-.634V81.2a.579.579,0,0,0-.279-.547h0a.655.655,0,0,0-.324-.1h-.125a6.878,6.878,0,0,0-3.547.99c-.175.1-.358.215-.532.335a11.917,11.917,0,0,0-1.6,1.325,5.89,5.89,0,0,0-.694.828,7.538,7.538,0,0,1,3.451.878l.1.054Zm-.632-20.252L59.912,64.5h-.187a.614.614,0,0,0-.141.029l-.083.033-.091.054a.733.733,0,0,0-.071.083l-.029.033-.029.037a.92.92,0,0,0-.083.248v.07h0a6.78,6.78,0,0,0,.57,3.678c.046.108.1.215.154.323l.033.062c.062.128.133.261.2.389a12.127,12.127,0,0,0,1.015,1.524,7.161,7.161,0,0,0,.694.762,7.436,7.436,0,0,1,1.247-3.363l.083-.1.05-.054h0l-.067-.112h0l-.037-.07h0l-.05-.1h0a5.113,5.113,0,0,1-.487-2.564.572.572,0,0,0-.557-.716ZM46.9,55.537a5.524,5.524,0,0,0,.778,2.775,5.185,5.185,0,0,0,3.555,2.017c.329.066.674.124,1.048.17,1.663.2,2.4.505,2.661,1.1l.416-.166a1.619,1.619,0,0,1,.574-.112,1.305,1.305,0,0,1,1.247.9,4.249,4.249,0,0,0,1.439,1.756,5.566,5.566,0,0,0,.328-1.992c-2.054-1.466-3.056-2.965-3.073-4.709a10.186,10.186,0,0,0-2.3-.5c-2-.228-2.724-.646-2.769-1.57-.054-1.077.595-1.71,1.821-1.768a3.885,3.885,0,0,1,2.013.414.563.563,0,0,0,.669-.133l1.663-1.831a.566.566,0,0,0-.121-.861,7.818,7.818,0,0,0-4.6-.961c-2.495.12-4.3,1.329-4.99,3.214l-.3,1.242A6.324,6.324,0,0,0,46.9,55.537Z" transform="translate(-27.247 -50.05)" fill="url(#radial-gradient)"/>
    <g id="Grupo_4233" data-name="Grupo 4233" transform="translate(67.265 13.92)">
      <path id="Trazado_25796" data-name="Trazado 25796" d="M203.534,84.128c.308.029.416.153.416.414v1.412c0,.311-.125.464-.416.464h-6.969c-2.736,0-4.075.828-4.075,2.758V89.7c0,1.549.437,2.386,2.333,3.16L201.6,95.65a5.083,5.083,0,0,1,3.576,5.384v.99c0,4.709-3.8,5.384-8.213,5.384a64.129,64.129,0,0,1-7.589-.414c-.279-.062-.37-.186-.37-.5v-1.4a.39.39,0,0,1,.416-.414h8.525c2.736,0,4.042-.774,4.042-2.729v-.588c0-1.578-.437-2.572-2.362-3.346l-7.373-2.969c-2.428-.932-2.911-2.9-2.911-5.268v-.766c0-4.709,3.7-5.359,8.15-5.359A38.911,38.911,0,0,1,203.534,84.128Z" transform="translate(-189.008 -83.66)" fill="#160d3a"/>
      <path id="Trazado_25797" data-name="Trazado 25797" d="M257.981,91.218c0,6.506-2.333,7.281-9.331,7.281H244.7v8.283c0,.369-.091.464-.466.464h-2.208c-.374,0-.466-.1-.466-.464V84.343c0-.373.092-.414.466-.464,2.208-.157,4.882-.22,6.624-.22C255.648,83.66,257.981,84.84,257.981,91.218Zm-13.282-4.8v9.418h3.672c5.131,0,6.437-.215,6.437-4.556,0-4.274-1.306-4.862-6.437-4.862Z" transform="translate(-219.707 -83.66)" fill="#160d3a"/>
      <path id="Trazado_25798" data-name="Trazado 25798" d="M310.405,91.218c0,4.97-1.368,6.6-5.1,7.094l5.256,8.333c.245.344.091.621-.374.621H308.2a1.219,1.219,0,0,1-1.247-.683L301.818,98.5h-4.7v8.283c0,.369-.092.464-.466.464h-2.208c-.374,0-.466-.1-.466-.464V84.343c0-.373.092-.414.466-.464,2.208-.157,4.882-.22,6.624-.22C308.073,83.66,310.405,84.84,310.405,91.218Zm-13.282-4.8v9.418H300.8c5.131,0,6.437-.215,6.437-4.556,0-4.274-1.306-4.862-6.437-4.862Z" transform="translate(-250.329 -83.66)" fill="#160d3a"/>
      <path id="Trazado_25799" data-name="Trazado 25799" d="M358.9,87.288l5.318,19.465c.062.414,0,.5-.37.5h-2.428c-.249,0-.308-.1-.416-.5l-1.929-6.846h-9.365l-1.958,6.846c-.1.414-.125.5-.416.5h-2.424c-.374,0-.416-.1-.374-.5l5.506-19.465c.9-3.193,1.431-3.628,4.325-3.628C357.615,83.66,358.031,84.095,358.9,87.288Zm-5.863.741L350.492,97.2h7.868l-2.408-9.169c-.416-1.425-.466-1.657-1.555-1.657C353.495,86.389,353.432,86.6,353.041,88.029Z" transform="translate(-279.858 -83.66)" fill="#160d3a"/>
      <path id="Trazado_25800" data-name="Trazado 25800" d="M428.4,84c.37,0,.466.124.416.493l-4.229,19.486c-.686,3.193-1.185,3.624-4.046,3.624-3.2,0-3.514-.414-4.291-3.624l-3.372-14.015L409.516,104c-.807,3.193-1.085,3.624-4.321,3.624-2.832,0-3.36-.414-4.046-3.624L396.97,84.509c-.062-.369,0-.493.37-.493H399.8c.25,0,.312.124.416.493l3.95,18.587c.312,1.425.532,1.657,1.152,1.657.832,0,.994-.219,1.339-1.657L411.1,85.47c.1-.414.312-.493.561-.493h2.495c.25,0,.437.091.528.493l4.449,17.626c.374,1.425.5,1.657,1.339,1.657.653,0,.832-.219,1.148-1.657l3.95-18.587c.1-.369.158-.493.416-.493Z" transform="translate(-310.48 -83.859)" fill="#160d3a"/>
      <path id="Trazado_25801" data-name="Trazado 25801" d="M488.8,83.994a.415.415,0,0,1,.466.464V104.7h11.29a.415.415,0,0,1,.466.464V107a.415.415,0,0,1-.466.464H486.591a.417.417,0,0,1-.35-.116.413.413,0,0,1-.12-.348V84.474a.415.415,0,0,1,.47-.48Z" transform="translate(-362.568 -83.853)" fill="#160d3a"/>
    </g>
  </g>
</svg>
